<svg width="347" height="168" viewBox="0 0 347 168" fill="none" xmlns="http://www.w3.org/2000/svg">
<path fill-rule="evenodd" clip-rule="evenodd" d="M203.171 92.3997C203.171 95.095 202.602 97.4743 201.479 99.5375C200.342 101.606 198.825 103.307 196.909 104.641C194.643 106.25 192.208 107.382 189.63 108.06C187.045 108.727 183.699 109.06 179.603 109.06H162.348V54.8086H178.305C182.594 54.8086 185.803 54.935 187.944 55.1879C190.085 55.4408 192.145 56.0384 194.112 56.9924C196.266 58.0327 197.845 59.4004 198.832 61.0843C199.831 62.7682 200.33 64.7566 200.33 67.0267C200.33 69.5841 199.581 71.8657 198.083 73.8714C196.59 75.8886 194.518 77.469 191.877 78.6012V78.8942C195.46 79.7735 198.239 81.3712 200.205 83.693C202.19 86.0205 203.171 88.9113 203.171 92.3997ZM192.002 68.0612C192.002 66.7394 191.758 65.6129 191.265 64.6417C190.791 63.6934 190.004 62.9291 188.93 62.3716C187.632 61.7165 186.19 61.3142 184.598 61.1648C183.012 61.0268 180.814 60.9521 178.011 60.9521H170.326V76.8368H179.428C181.932 76.8368 183.786 76.7219 184.966 76.4863C186.152 76.2506 187.376 75.7794 188.643 75.0495C189.861 74.3541 190.722 73.4231 191.234 72.2852C191.752 71.1358 192.002 69.722 192.002 68.0612ZM194.849 92.6928C194.849 90.6469 194.518 88.963 193.868 87.6297C193.219 86.3079 191.914 85.1815 189.954 84.2619C188.681 83.647 187.301 83.262 185.809 83.0896C184.31 82.9229 182.188 82.8367 179.435 82.8367H170.326V102.922H176.85C180.352 102.922 183.118 102.773 185.141 102.48C187.164 102.187 188.949 101.572 190.479 100.618C191.989 99.6696 193.088 98.5892 193.794 97.3881C194.499 96.1812 194.849 94.6123 194.849 92.6928Z" fill="#FEF2F3"/>
<path fill-rule="evenodd" clip-rule="evenodd" d="M211.152 109.06V54.8086H248.848V61.2222H219.137V76.0897H246.825V82.5149H219.137V102.641H248.848V109.06H211.152Z" fill="#FEF2F3"/>
<path fill-rule="evenodd" clip-rule="evenodd" d="M274.372 110.027C270.002 110.027 266.3 109.613 263.241 108.814C260.182 107.998 257.31 106.992 254.619 105.808V96.7799H255.187C257.822 99.0097 260.806 100.734 264.152 101.958C267.486 103.182 270.714 103.791 273.81 103.791C278.218 103.791 281.558 102.969 283.824 101.303C286.084 99.6362 287.214 97.4408 287.214 94.7282C287.214 92.5616 286.614 90.8088 285.435 89.4467C284.255 88.0847 282.369 87.079 279.778 86.4181C277.924 85.9353 276.226 85.5388 274.69 85.2227C273.155 84.9066 271.225 84.4813 268.909 83.9526C266.837 83.4641 264.97 82.8434 263.328 82.0906C261.692 81.3377 260.238 80.355 258.964 79.1424C257.722 77.947 256.76 76.5562 256.074 74.9298C255.381 73.3264 255.044 71.4644 255.044 69.3495C255.044 64.9531 256.942 61.2692 260.75 58.2923C264.539 55.3268 269.39 53.8384 275.283 53.8384C278.655 53.8384 281.832 54.143 284.841 54.7464C287.838 55.3556 290.622 56.2176 293.176 57.3326V65.9818H292.57C290.666 64.3956 288.213 63.0221 285.222 61.8382C282.232 60.6601 279.092 60.0739 275.814 60.0739C272.1 60.0739 269.103 60.8555 266.805 62.4129C264.514 63.9818 263.378 66.0392 263.378 68.5852C263.378 70.884 264.052 72.7172 265.395 74.0793C266.743 75.4413 268.697 76.4413 271.25 77.0677C272.955 77.4758 275.021 77.947 277.475 78.47C279.928 78.9872 281.957 79.4757 283.58 79.9125C287.726 81.0561 290.76 82.7802 292.664 85.0848C294.581 87.3951 295.536 90.2341 295.536 93.6076C295.536 95.711 295.055 97.8086 294.106 99.866C293.145 101.935 291.802 103.688 290.079 105.119C288.144 106.693 285.953 107.912 283.518 108.762C281.077 109.607 278.024 110.027 274.372 110.027Z" fill="#FEF2F3"/>
<path fill-rule="evenodd" clip-rule="evenodd" d="M317.786 109.06V61.2222H297.564V54.8086H345.998V61.2222H325.777V109.06H317.786Z" fill="#FEF2F3"/>
<path d="M313.78 130.922H304.965V116.336H306.988V129.198H313.78V130.922ZM326.397 116.336L321.165 130.922H318.987L313.755 116.336H315.921L320.129 128.422L324.331 116.336H326.397ZM333.158 130.922H327.252V129.433H329.194V117.824H327.252V116.336H333.158V117.824H331.217V129.433H333.158V130.922ZM346.674 116.336L341.443 130.922H339.258L334.032 116.336H336.198L340.406 128.422L344.608 116.336H346.674Z" fill="#FEF2F3"/>
<path fill-rule="evenodd" clip-rule="evenodd" d="M132.314 109.129L119.06 101.802H84.4431L71.1768 109.129C83.8625 130.267 121.795 164.869 162.88 167.863C148.559 160.174 125.772 132.537 132.314 109.129Z" fill="#FEF2F3"/>
<path fill-rule="evenodd" clip-rule="evenodd" d="M103.93 69.4294L103.674 68.9869L103.93 69.4294ZM141.675 0C141.893 15.741 128.334 48.4701 103.924 54.7516L103.93 69.4352L121.242 98.1816L134.489 105.526C147.231 84.4176 159.517 35.6199 141.675 0Z" fill="#FEF2F3"/>
<path fill-rule="evenodd" clip-rule="evenodd" d="M82.2584 98.1753L82.0025 98.6063L82.2584 98.1753ZM99.5765 54.751C74.155 54.7223 23.9302 68.9116 0.6875 101.537C14.7967 93.4972 51.1371 88.3824 69.0108 105.526L82.2584 98.181L99.5702 69.4346L99.5765 54.751Z" fill="#FEF2F3"/>
<path fill-rule="evenodd" clip-rule="evenodd" d="M93.624 89.7915C93.624 85.5043 97.2574 82.0273 101.74 82.0273C106.222 82.0273 109.856 85.5043 109.856 89.7915C109.856 94.1018 106.222 97.5787 101.74 97.5787C97.2574 97.5787 93.624 94.1018 93.624 89.7915Z" fill="#FEF2F3"/>
</svg>
