<svg width="385" height="214" viewBox="0 0 385 214" fill="none" xmlns="http://www.w3.org/2000/svg">
<path d="M157.6 63.999L143.1 78.499L128.7 63.999L143.2 49.499L157.6 63.999ZM192.7 28.899L217.5 53.699L232 39.199L192.7 -0.000976562L153.5 39.199L168 53.699L192.7 28.899ZM242.2 49.499L227.8 63.999L242.3 78.499L256.7 63.999L242.2 49.499ZM192.7 99.099L167.9 74.299L153.4 88.799L192.7 127.999L231.9 88.799L217.4 74.299L192.7 99.099ZM192.7 78.499L207.2 63.999L192.7 49.499L178.2 63.999L192.7 78.499ZM48.4002 197.699V197.499C48.4002 189.999 44.4002 186.199 37.9002 183.699C41.9002 181.499 45.3002 177.899 45.3002 171.599V171.399C45.3002 162.599 38.2002 156.899 26.8002 156.899H0.700195V213.099H27.4002C40.1002 213.099 48.4002 207.999 48.4002 197.699ZM33.0002 173.699C33.0002 177.899 29.5002 179.599 24.1002 179.599H12.7002V167.699H24.9002C30.1002 167.699 33.0002 169.799 33.0002 173.499V173.699ZM36.2002 196.199C36.2002 200.399 32.9002 202.299 27.5002 202.299H12.7002V189.899H27.0002C33.3002 189.899 36.1002 192.199 36.1002 195.999V196.199H36.2002ZM74.4002 213.099V156.899H62.0002V213.099H74.4002ZM140.8 213.099V156.899H128.6V191.499L102.3 156.899H90.9002V213.099H103.1V177.399L130.3 213.099H140.8ZM209.3 213.099L185.2 156.499H173.8L149.7 213.099H162.3L167.4 200.499H191.2L196.3 213.099H209.3ZM186.8 189.599H171.9L179.4 171.399L186.8 189.599ZM268.2 213.099V156.899H256V191.499L229.7 156.899H218.3V213.099H230.5V177.399L257.7 213.099H268.2ZM332 203.999L324.1 196.099C319.7 200.099 315.8 202.699 309.3 202.699C299.7 202.699 293 194.699 293 184.999V184.799C293 175.199 299.8 167.299 309.3 167.299C314.9 167.299 319.3 169.699 323.7 173.599L331.6 164.499C326.4 159.399 320 155.799 309.5 155.799C292.2 155.799 280.2 168.899 280.2 184.899V185.099C280.2 201.199 292.5 213.999 309 213.999C319.8 214.099 326.2 210.199 332 203.999ZM384.7 213.099V202.099H354.2V190.299H380.7V179.299H354.2V167.899H384.3V156.899H341.9V213.099H384.7Z" fill="#F0B90B"/>
</svg>
