<svg width="1474" height="245" viewBox="0 0 1474 245" fill="none" xmlns="http://www.w3.org/2000/svg">
<path d="M347.709 200.786C308.646 228.508 260.915 244.802 209.356 244.802C119.644 244.802 41.4455 195.435 0.474609 122.388C15.6163 95.42 35.8243 71.6544 59.8318 52.4426C93.4595 143.948 181.364 209.225 284.538 209.225C306.411 209.225 327.587 206.279 347.709 200.786Z" fill="#4069ED"/>
<path d="M345.375 189.659C326.006 195.01 305.599 197.87 284.523 197.87C258.552 197.87 233.619 193.53 210.352 185.532C214.692 186.016 219.104 186.258 223.572 186.258C261.853 186.258 296.036 168.697 318.45 141.188C329.308 156.06 338.373 172.326 345.375 189.659Z" fill="#4069ED"/>
<path d="M71.0195 44.0163C110.083 16.2944 157.814 0 209.373 0C299.085 0 377.284 49.3671 418.254 122.415C403.113 149.382 382.905 173.148 358.897 192.36C325.269 100.855 237.365 35.5773 134.191 35.5773C112.318 35.5916 91.1421 38.5231 71.0195 44.0163Z" fill="#4069ED"/>
<path d="M73.3496 55.1568C92.7179 49.806 113.125 46.9456 134.201 46.9456C160.173 46.9456 185.105 51.286 208.373 59.2838C204.032 58.7999 199.621 58.558 195.152 58.558C156.871 58.558 122.688 76.119 100.275 103.627C89.4163 88.7418 80.3512 72.4758 73.3496 55.1568Z" fill="#4069ED"/>
<path d="M538.031 48.8085C545.275 44.8523 549.544 37.0964 549.501 29.3121C549.43 14.7823 536.736 5.0199 517.738 5.0199H472.156V95.3721H517.738C538.785 95.3721 553.756 85.7805 553.486 69.5857C553.344 60.2786 547.324 51.6689 538.031 48.8085ZM492.606 59.254H520.755C524.113 59.2113 528.141 59.7521 530.631 62.3137C532.012 63.7368 533.008 65.7718 532.922 68.7033C532.837 71.7772 531.243 73.6984 529.863 74.8938C527.657 76.7865 524.839 76.815 520.755 76.8008H492.606V59.254ZM517.752 40.6826H492.606V23.1359H517.752C522.05 23.1359 525.053 24.2459 526.974 26.4517C528.226 27.889 529.137 29.8956 529.137 32.0017C529.137 34.9191 527.543 38.0072 524.853 39.5726C522.975 40.6542 520.541 40.6826 517.752 40.6826Z" fill="#1C1C1C"/>
<path d="M588.596 77.2562V5.0199H568.16V95.3864H640.396V77.2562H588.596Z" fill="#1C1C1C"/>
<path d="M718.88 5.0199H697.249L651.938 95.3721H674.821L684.128 76.8008H731.944L741.294 95.3721H764.177L718.88 5.0199ZM723.22 59.2398H692.951L708.093 29.1556L723.22 59.2398Z" fill="#1C1C1C"/>
<path d="M841.036 62.9504C836.312 72.1721 826.862 77.4517 815.108 77.4517C798.102 77.4517 786.233 66.2947 786.233 50.3133C786.233 34.1897 798.116 22.933 815.108 22.933C827.033 22.933 836.482 28.2127 841.022 37.4059L841.435 38.2455H862.781L862.241 36.3386C856.605 16.2302 838.105 3.23743 815.093 3.23743C786.973 3.23743 765.783 23.4738 765.783 50.3133C765.783 77.0106 786.987 97.1331 815.093 97.1331C838.219 97.1331 856.733 84.1402 862.241 64.0319L862.753 62.1392H841.435L841.036 62.9504Z" fill="#1C1C1C"/>
<path d="M924.647 50.0608L967.383 5.0199H939.576L905.592 40.6399H897.779V5.0199H877.344V95.3864H897.779V59.254H904.923L942.436 95.3864H971.012L924.647 50.0608Z" fill="#1C1C1C"/>
<path d="M977.713 5.0199V23.1359H1008.59V95.3864H1029.03V23.1359H1059.67V5.0199H977.713Z" fill="#1C1C1C"/>
<path d="M1138.84 5.0199V41.138H1094.15V5.03414L1073.72 5.0199V95.3864H1094.15V59.2682H1138.84V95.3864H1159.27V5.0199H1138.84Z" fill="#1C1C1C"/>
<path d="M1222.51 3.23743C1194.39 3.23743 1173.2 23.4738 1173.2 50.3133C1173.2 77.0106 1194.41 97.1331 1222.51 97.1331C1251.02 97.1331 1271.71 77.4375 1271.71 50.3133C1271.71 22.5915 1251.47 3.23743 1222.51 3.23743ZM1222.51 22.933C1239.72 22.933 1251.27 33.9335 1251.27 50.3133C1251.27 66.5508 1239.72 77.4517 1222.51 77.4517C1205.51 77.4517 1193.64 66.2947 1193.64 50.3133C1193.64 34.1897 1205.51 22.933 1222.51 22.933Z" fill="#1C1C1C"/>
<path d="M1349.82 65.4444C1360.98 59.5244 1367.84 48.9366 1367.84 37.3953C1367.84 18.9378 1352.53 5.0199 1332.22 5.0199H1285.9V95.1871H1306.33V68.5325H1326.45L1346.88 95.3864H1372.48L1349.82 65.4444ZM1306.32 23.1216H1332.2C1341 23.1216 1347.39 28.7286 1347.39 36.4418C1347.39 43.8846 1340.86 50.4593 1332.2 50.4593H1306.32V23.1216Z" fill="#1C1C1C"/>
<path d="M1452.74 5.0199V60.6629L1401.22 5.0199H1384.63V95.3864H1405.07V39.2595L1457.04 95.3864H1473.18V5.0199H1452.74Z" fill="#1C1C1C"/>
<path d="M561.033 149.521L527.974 215.467L494.916 149.521H472.047L517.358 239.887H538.591L583.888 149.521H561.033Z" fill="#1C1C1C"/>
<path d="M616.522 149.521H596.086V239.887H616.522V149.521Z" fill="#1C1C1C"/>
<path d="M674.056 183.743C660.935 182.092 652.881 180.768 652.881 174.521C652.881 169.113 660.736 165.185 671.552 165.185C681.641 165.185 690.621 170.024 692.002 176.214L692.258 177.396H713.149L713.006 175.759C711.555 158.995 694.89 147.738 671.537 147.738C648.142 147.738 632.431 158.298 632.431 174.023C632.431 198.486 654.347 201.19 671.95 203.367C685.655 205.061 694.065 206.455 694.065 213.499C694.065 219.405 686.21 223.703 675.394 223.703C663.355 223.703 654.133 218.665 652.454 211.18L652.198 210.013H631.207L631.321 211.621C632.602 229.296 650.832 241.648 675.65 241.648C698.534 241.648 714.501 230.278 714.501 213.998C714.515 188.823 692.087 186.005 674.056 183.743Z" fill="#1C1C1C"/>
<path d="M750.817 149.521H730.381V239.887H750.817V149.521Z" fill="#1C1C1C"/>
<path d="M814.187 147.755C786.067 147.755 764.877 167.991 764.877 194.831C764.877 221.528 786.081 241.651 814.187 241.651C842.692 241.651 863.383 221.955 863.383 194.831C863.369 167.109 843.147 147.755 814.187 147.755ZM814.187 167.436C831.392 167.436 842.948 178.437 842.948 194.817C842.948 211.054 831.392 221.955 814.187 221.955C797.181 221.955 785.313 210.798 785.313 194.817C785.313 178.693 797.181 167.436 814.187 167.436Z" fill="#1C1C1C"/>
<path d="M945.543 149.521V205.192L893.97 149.521H877.434V239.887H897.869V183.96L949.841 239.887H965.979V149.521H945.543Z" fill="#1C1C1C"/>
</svg>
