<svg width="165" height="168" viewBox="0 0 165 168" fill="none" xmlns="http://www.w3.org/2000/svg">
<path d="M73.125 42.8501V35.3501C73.125 32.8637 74.1127 30.4791 75.8709 28.7209C77.629 26.9628 80.0136 25.9751 82.5 25.9751C84.9864 25.9751 87.371 26.9628 89.1291 28.7209C90.8873 30.4791 91.875 32.8637 91.875 35.3501V42.8501M69.375 42.8501H95.625C97.6961 42.8501 99.375 44.529 99.375 46.6001V59.7251C99.375 61.7961 97.6961 63.4751 95.625 63.4751H69.375C67.3039 63.4751 65.625 61.7961 65.625 59.7251V46.6001C65.625 44.529 67.3039 42.8501 69.375 42.8501ZM85.0019 1.67095L118.502 21.0313C120.048 21.9248 121 23.5748 121 25.3604V64.0897C121 65.8753 120.048 67.5254 118.502 68.4188L85.0019 87.7792C83.4539 88.6738 81.5461 88.6738 79.9981 87.7792L46.4981 68.4188C44.9522 67.5254 44 65.8753 44 64.0897V25.3604C44 23.5748 44.9522 21.9248 46.4981 21.0313L79.9981 1.67094C81.5461 0.77635 83.4539 0.776353 85.0019 1.67095Z" stroke="#E62222" stroke-width="2" stroke-linecap="round" stroke-linejoin="round"/>
<path d="M0 127.719C0 121.035 3.34216 117.692 10.0265 117.692H23.3951V122.149H10.0265C6.31296 122.149 4.45621 124.005 4.45621 127.719V139.974C4.45621 143.687 6.31296 145.544 10.0265 145.544H23.3951V150H10.0265C3.34216 150 0 146.658 0 139.974V127.719ZM5.57026 127.719C5.57026 124.748 7.05566 123.263 10.0265 123.263H23.3951V127.719H11.1405C10.3978 127.719 10.0265 128.09 10.0265 128.833V138.859C10.0265 139.602 10.3978 139.974 11.1405 139.974H23.3951V144.43H10.0265C7.05566 144.43 5.57026 142.944 5.57026 139.974V127.719ZM50.8661 128.276C50.8661 131.197 50.1111 133.413 48.6009 134.923C47.1155 136.409 45.8529 137.411 44.8131 137.931L50.8661 150H46.4099L38.6116 134.403H40.8397C42.1518 134.403 43.402 133.809 44.5903 132.621C45.8034 131.408 46.4099 129.959 46.4099 128.276C46.4099 126.617 45.8034 125.181 44.5903 123.968C43.402 122.755 42.1518 122.149 40.8397 122.149H25.2429V117.692H40.8397C43.3896 117.692 45.692 118.732 47.7468 120.812C49.8264 122.891 50.8661 125.379 50.8661 128.276ZM45.2959 128.276C45.2959 129.662 44.8007 130.851 43.8105 131.841C42.845 132.806 41.8547 133.289 40.8397 133.289H29.6991V150H25.2429V128.833H39.7256C40.4683 128.833 40.8397 128.647 40.8397 128.276C40.8397 127.905 40.4683 127.719 39.7256 127.719H25.2429V123.263H40.8397C41.8547 123.263 42.845 123.758 43.8105 124.748C44.8007 125.738 45.2959 126.914 45.2959 128.276ZM45.2959 150H40.8397L35.2694 138.859V150H30.8132V134.403H37.4975L45.2959 150ZM66.0826 150H61.6264V133.846L52.714 117.692H57.1702L66.0826 133.846V150ZM58.2842 117.692H62.7405L66.6396 124.748L70.5388 117.692H74.995L68.8677 128.796L69.4248 129.799L76.1091 117.692H80.5653L71.6529 133.846V150H67.1967L67.2338 133.883L58.2842 117.692ZM108.036 128.276C108.036 131.197 106.997 133.698 104.917 135.777C102.862 137.832 100.56 138.859 98.0099 138.859H93.5537V134.403H98.0099C99.322 134.403 100.572 133.809 101.761 132.621C102.974 131.408 103.58 129.959 103.58 128.276C103.58 126.617 102.974 125.181 101.761 123.968C100.572 122.755 99.322 122.149 98.0099 122.149H86.8693V150H82.4131V117.692H98.0099C100.56 117.692 102.862 118.732 104.917 120.812C106.997 122.891 108.036 125.379 108.036 128.276ZM102.466 128.276C102.466 129.662 101.971 130.851 100.981 131.841C100.015 132.806 99.0249 133.289 98.0099 133.289H93.5537V128.833H96.8958C97.6385 128.833 98.0099 128.647 98.0099 128.276C98.0099 127.905 97.6385 127.719 96.8958 127.719H92.4396V150H87.9834V123.263H98.0099C99.0249 123.263 100.015 123.758 100.981 124.748C101.971 125.738 102.466 126.914 102.466 128.276ZM109.884 117.692H135.507V122.149H109.884V117.692ZM109.884 123.263H122.139V150H117.683V127.719H109.884V123.263ZM123.253 150V123.263H135.507V127.719H127.709V150H123.253ZM161.864 127.719V139.974C161.864 146.658 158.522 150 151.838 150H147.382C140.697 150 137.355 146.658 137.355 139.974V127.719C137.355 121.035 140.697 117.692 147.382 117.692H151.838C158.522 117.692 161.864 121.035 161.864 127.719ZM156.294 127.719V139.974C156.294 142.944 154.809 144.43 151.838 144.43H147.382C144.411 144.43 142.925 142.944 142.925 139.974V127.719C142.925 124.748 144.411 123.263 147.382 123.263H151.838C154.809 123.263 156.294 124.748 156.294 127.719ZM157.408 127.719C157.408 124.005 155.551 122.149 151.838 122.149H147.382C143.668 122.149 141.811 124.005 141.811 127.719V139.974C141.811 143.687 143.668 145.544 147.382 145.544H151.838C155.551 145.544 157.408 143.687 157.408 139.974V127.719ZM151.838 128.833C151.838 128.09 151.467 127.719 150.724 127.719H148.496C147.753 127.719 147.382 128.09 147.382 128.833V138.859C147.382 139.602 147.753 139.974 148.496 139.974H150.724C151.467 139.974 151.838 139.602 151.838 138.859V128.833Z" fill="#E62222"/>
</svg>
