<svg width="199" height="150" viewBox="0 0 199 150" fill="none" xmlns="http://www.w3.org/2000/svg">
<path d="M99.5 100.975C98.5054 100.975 97.5516 101.37 96.8484 102.073C96.1451 102.777 95.75 103.731 95.75 104.725C95.75 106.638 95.5625 109.431 95.2625 112.225M103.25 106.825C103.25 111.288 103.25 118.788 101.375 123.475M109.419 121.638C109.644 120.513 110.225 117.325 110.356 115.975M80.75 104.725C80.75 100.79 81.9882 96.9542 84.2892 93.7617C86.5902 90.5693 89.8374 88.1817 93.5707 86.9373C97.3041 85.6928 101.334 85.6546 105.091 86.8279C108.847 88.0013 112.139 90.3268 114.5 93.4751M80.75 112.225H80.7687M117.875 112.225C118.25 108.475 118.121 102.186 117.875 100.975M86.375 118.788C87.3125 115.975 88.25 110.35 88.25 104.725C88.2481 103.448 88.4637 102.18 88.8875 100.975M93.2188 123.475C93.6125 122.238 94.0625 121 94.2875 119.725M93.875 94.9751C95.5857 93.9874 97.5264 93.4675 99.5018 93.4679C101.477 93.4682 103.418 93.9886 105.128 94.9769C106.839 95.9651 108.259 97.3863 109.245 99.0975C110.232 100.809 110.751 102.75 110.75 104.725V108.475M102.002 61.6709L135.502 81.0313C137.048 81.9248 138 83.5748 138 85.3604V124.09C138 125.875 137.048 127.525 135.502 128.419L102.002 147.779C100.454 148.674 98.5461 148.674 96.9981 147.779L63.4981 128.419C61.9522 127.525 61 125.875 61 124.09V85.3604C61 83.5748 61.9522 81.9248 63.4981 81.0313L96.9981 61.6709C98.5461 60.7764 100.454 60.7764 102.002 61.6709Z" stroke="#E62222" stroke-width="2" stroke-linecap="round" stroke-linejoin="round"/>
<path d="M0 20.719C0 14.0346 3.34216 10.6925 10.0265 10.6925H23.3951V15.1487H10.0265C6.31296 15.1487 4.45621 17.0054 4.45621 20.719V43H0V20.719ZM5.57026 26.2892V20.719C5.57026 17.7481 7.05566 16.2627 10.0265 16.2627H23.3951V20.719H11.1405C10.3978 20.719 10.0265 21.0903 10.0265 21.833H20.0529V26.2892H5.57026ZM5.57026 27.4033H20.0529V31.8595H10.0265V43H5.57026V27.4033ZM49.7521 20.719V32.9735C49.7521 39.6578 46.4099 43 39.7256 43H35.2694C28.5851 43 25.2429 39.6578 25.2429 32.9735V20.719C25.2429 14.0346 28.5851 10.6925 35.2694 10.6925H39.7256C46.4099 10.6925 49.7521 14.0346 49.7521 20.719ZM44.1818 20.719V32.9735C44.1818 35.9443 42.6964 37.4297 39.7256 37.4297H35.2694C32.2986 37.4297 30.8132 35.9443 30.8132 32.9735V20.719C30.8132 17.7481 32.2986 16.2627 35.2694 16.2627H39.7256C42.6964 16.2627 44.1818 17.7481 44.1818 20.719ZM45.2959 20.719C45.2959 17.0054 43.4391 15.1487 39.7256 15.1487H35.2694C31.5559 15.1487 29.6991 17.0054 29.6991 20.719V32.9735C29.6991 36.687 31.5559 38.5438 35.2694 38.5438H39.7256C43.4391 38.5438 45.2959 36.687 45.2959 32.9735V20.719ZM39.7256 21.833C39.7256 21.0903 39.3543 20.719 38.6116 20.719H36.3835C35.6408 20.719 35.2694 21.0903 35.2694 21.833V31.8595C35.2694 32.6022 35.6408 32.9735 36.3835 32.9735H38.6116C39.3543 32.9735 39.7256 32.6022 39.7256 31.8595V21.833ZM77.2231 21.276C77.2231 24.1973 76.4681 26.413 74.9579 27.9232C73.4725 29.4086 72.2099 30.4112 71.1701 30.9311L77.2231 43H72.7669L64.9686 27.4033H67.1967C68.5088 27.4033 69.759 26.8091 70.9473 25.6208C72.1604 24.4077 72.7669 22.9594 72.7669 21.276C72.7669 19.6173 72.1604 18.1814 70.9473 16.9683C69.759 15.7552 68.5088 15.1487 67.1967 15.1487H51.5999V10.6925H67.1967C69.7466 10.6925 72.049 11.7323 74.1038 13.8118C76.1833 15.8914 77.2231 18.3794 77.2231 21.276ZM71.6529 21.276C71.6529 22.6624 71.1577 23.8507 70.1675 24.8409C69.202 25.8065 68.2117 26.2892 67.1967 26.2892H56.0561V43H51.5999V21.833H66.0826C66.8253 21.833 67.1967 21.6473 67.1967 21.276C67.1967 20.9046 66.8253 20.719 66.0826 20.719H51.5999V16.2627H67.1967C68.2117 16.2627 69.202 16.7579 70.1675 17.7481C71.1577 18.7384 71.6529 19.9144 71.6529 21.276ZM71.6529 43H67.1967L61.6264 31.8595V43H57.1702V27.4033H63.8545L71.6529 43ZM79.071 20.719C79.071 14.0346 82.4131 10.6925 89.0974 10.6925H102.466V15.1487H89.0974C85.3839 15.1487 83.5272 17.0054 83.5272 20.719V32.9735C83.5272 36.687 85.3839 38.5438 89.0974 38.5438H102.466V43H89.0974C82.4131 43 79.071 39.6578 79.071 32.9735V20.719ZM84.6412 26.2892V20.719C84.6412 17.7481 86.1266 16.2627 89.0974 16.2627H102.466V20.719H90.2115C89.4688 20.719 89.0974 21.0903 89.0974 21.833H99.1239V26.2892H84.6412ZM84.6412 27.4033H99.1239V31.8595H89.0974C89.0974 32.6022 89.4688 32.9735 90.2115 32.9735H102.466V37.4297H89.0974C86.1266 37.4297 84.6412 35.9443 84.6412 32.9735V27.4033ZM104.314 43V16.2627C104.314 12.5492 106.171 10.6925 109.884 10.6925C112.112 10.6925 113.598 11.1381 114.34 12.0293L122.51 22.0558C123.005 22.65 123.253 22.5757 123.253 21.833V10.6925H127.709V34.2361C127.808 36.0186 127.56 36.4642 126.966 35.573L111.072 16.2627C110.478 15.52 109.921 15.1487 109.401 15.1487C108.882 15.1487 108.671 15.8914 108.77 17.3768V43H104.314ZM133.279 10.6925V37.4297C133.279 41.1432 131.423 43 127.709 43C125.481 43 123.996 42.5544 123.253 41.6631L115.083 31.6367C114.588 31.0425 114.34 31.1168 114.34 31.8595V43H109.884V19.4564C109.785 17.6739 110.033 17.2283 110.627 18.1195L126.521 37.4297C127.115 38.1724 127.672 38.5438 128.192 38.5438C128.712 38.5438 128.922 37.8011 128.823 36.3157V10.6925H133.279ZM135.127 21.276C135.127 18.3794 136.155 15.8914 138.209 13.8118C140.289 11.7323 142.604 10.6925 145.154 10.6925H159.636V15.1487H146.268C144.213 15.1487 142.579 15.7552 141.366 16.9683C140.177 18.1814 139.583 19.6173 139.583 21.276C139.583 22.9594 140.177 24.4077 141.366 25.6208C142.579 26.8091 144.213 27.4033 146.268 27.4033H148.496C150.253 27.4033 151.615 27.8984 152.581 28.8887C153.571 29.8542 154.066 31.0301 154.066 32.4165C154.066 33.7781 153.571 34.9541 152.581 35.9443C151.615 36.9346 150.253 37.4297 148.496 37.4297H135.127V32.9735H148.496C149.238 32.9735 149.61 32.7879 149.61 32.4165C149.61 32.0452 149.238 31.8595 148.496 31.8595H145.154C142.604 31.8595 140.289 30.8321 138.209 28.7773C136.155 26.6977 135.127 24.1973 135.127 21.276ZM140.697 21.276C140.697 19.9144 141.18 18.7384 142.146 17.7481C143.136 16.7579 144.51 16.2627 146.268 16.2627H159.636V20.719H146.268C145.525 20.719 145.154 20.9046 145.154 21.276C145.154 21.6473 145.525 21.833 146.268 21.833H149.61C152.16 21.833 154.462 22.8728 156.517 24.9524C158.596 27.0072 159.636 29.4952 159.636 32.4165C159.636 35.313 158.596 37.8011 156.517 39.8807C154.462 41.9602 152.16 43 149.61 43H135.127V38.5438H148.496C150.551 38.5438 152.172 37.9373 153.36 36.7242C154.574 35.5111 155.18 34.0752 155.18 32.4165C155.18 30.733 154.574 29.2972 153.36 28.1088C152.172 26.8958 150.551 26.2892 148.496 26.2892H146.268C144.51 26.2892 143.136 25.8065 142.146 24.8409C141.18 23.8507 140.697 22.6624 140.697 21.276ZM161.484 43V10.6925H165.94V43H161.484ZM167.054 43V10.6925H171.511V43H167.054ZM173.358 20.719C173.358 14.0346 176.701 10.6925 183.385 10.6925H196.754V15.1487H183.385C179.671 15.1487 177.815 17.0054 177.815 20.719V32.9735C177.815 36.687 179.671 38.5438 183.385 38.5438H196.754V43H183.385C176.701 43 173.358 39.6578 173.358 32.9735V20.719ZM178.929 20.719C178.929 17.7481 180.414 16.2627 183.385 16.2627H196.754V20.719H184.499C183.756 20.719 183.385 21.0903 183.385 21.833V31.8595C183.385 32.6022 183.756 32.9735 184.499 32.9735H196.754V37.4297H183.385C180.414 37.4297 178.929 35.9443 178.929 32.9735V20.719Z" fill="#E62222"/>
</svg>
