<svg width="424" height="497" viewBox="0 0 424 497" fill="none" xmlns="http://www.w3.org/2000/svg">
<path d="M218.739 102.917L93.5234 175.53M218.739 102.917L344.014 175.53M218.739 102.917V139.081M218.739 247.572V283.736M218.739 247.572L250.057 265.654M218.739 247.572V211.408M93.5234 175.53V319.899M93.5234 175.53L124.842 193.612M218.798 247.858L187.48 229.776M344.014 319.899V175.53M344.014 319.899L218.739 392.227M344.014 319.899L312.695 301.817M93.5234 319.899L218.739 392.227M93.5234 319.899L124.842 301.817M218.798 247.572L187.48 265.654M344.014 175.53L312.695 193.612M218.739 247.858L250.057 229.776M218.739 392.227V356.063M156.161 211.694V283.736M156.161 211.694L218.739 175.244M156.161 211.694L187.48 229.776M156.161 211.694L124.842 193.612M156.161 283.736L218.739 319.899M156.161 283.736L187.48 265.654M156.161 283.736L124.842 301.817M218.739 175.244L281.376 211.694M218.739 175.244V211.408M218.739 175.244V139.081M281.376 211.694L281.376 283.736M281.376 211.694L250.057 229.776M281.376 211.694L312.695 193.612M281.376 283.736L218.739 319.899M281.376 283.736L250.057 265.654M281.376 283.736L312.695 301.817M218.739 319.899V283.736M218.739 319.899V356.063M187.48 229.776V265.654M187.48 229.776L218.739 211.408M187.48 265.654L218.739 283.736M218.739 283.736L250.057 265.654M250.057 265.654L250.057 229.776M250.057 229.776L218.739 211.408M124.842 193.612V301.817M124.842 193.612L218.739 139.081M124.842 301.817L218.739 356.063M218.739 356.063L312.695 301.817M312.695 301.817V193.612M312.695 193.612L218.739 139.081" stroke="#E62222" stroke-width="2"/>
<path d="M387.551 158.221C387.551 164.142 382.751 168.941 376.83 168.941M387.551 158.221C387.551 152.3 382.751 147.5 376.83 147.5M387.551 158.221H366.11M376.83 168.941C370.909 168.941 366.11 164.142 366.11 158.221M376.83 168.941C374.077 166.051 372.542 162.212 372.542 158.221C372.542 154.229 374.077 150.391 376.83 147.5M376.83 168.941C379.583 166.051 381.118 162.212 381.118 158.221C381.118 154.229 379.583 150.391 376.83 147.5M366.11 158.221C366.11 152.3 370.909 147.5 376.83 147.5M378.261 133.604L397.415 144.674C398.298 145.185 398.843 146.128 398.843 147.149V169.293C398.843 170.314 398.298 171.257 397.415 171.768L378.261 182.838C377.376 183.349 376.285 183.349 375.4 182.838L356.246 171.768C355.362 171.257 354.817 170.314 354.817 169.293V147.149C354.817 146.128 355.362 145.185 356.246 144.674L375.4 133.604C376.285 133.093 377.376 133.093 378.261 133.604Z" stroke="#E62222" stroke-width="2" stroke-linejoin="round"/>
<path d="M355.891 111.281V117.727C355.891 121.242 354.133 123 350.617 123H348.273C344.758 123 343 121.242 343 117.727V111.281C343 107.766 344.758 106.008 348.273 106.008H350.617C354.133 106.008 355.891 107.766 355.891 111.281ZM352.961 111.281V117.727C352.961 119.289 352.18 120.07 350.617 120.07H348.273C346.711 120.07 345.93 119.289 345.93 117.727V111.281C345.93 109.719 346.711 108.938 348.273 108.938H350.617C352.18 108.938 352.961 109.719 352.961 111.281ZM353.547 111.281C353.547 109.328 352.57 108.352 350.617 108.352H348.273C346.32 108.352 345.344 109.328 345.344 111.281V117.727C345.344 119.68 346.32 120.656 348.273 120.656H350.617C352.57 120.656 353.547 119.68 353.547 117.727V111.281ZM350.617 111.867C350.617 111.477 350.422 111.281 350.031 111.281H348.859C348.469 111.281 348.273 111.477 348.273 111.867V117.141C348.273 117.531 348.469 117.727 348.859 117.727H350.031C350.422 117.727 350.617 117.531 350.617 117.141V111.867ZM357.062 111.574C357.062 110.051 357.603 108.742 358.684 107.648C359.777 106.555 360.995 106.008 362.336 106.008H369.953V108.352H362.922C361.841 108.352 360.982 108.671 360.344 109.309C359.719 109.947 359.406 110.702 359.406 111.574C359.406 112.46 359.719 113.221 360.344 113.859C360.982 114.484 361.841 114.797 362.922 114.797H364.094C365.018 114.797 365.734 115.057 366.242 115.578C366.763 116.086 367.023 116.704 367.023 117.434C367.023 118.15 366.763 118.768 366.242 119.289C365.734 119.81 365.018 120.07 364.094 120.07H357.062V117.727H364.094C364.484 117.727 364.68 117.629 364.68 117.434C364.68 117.238 364.484 117.141 364.094 117.141H362.336C360.995 117.141 359.777 116.6 358.684 115.52C357.603 114.426 357.062 113.111 357.062 111.574ZM359.992 111.574C359.992 110.858 360.246 110.24 360.754 109.719C361.275 109.198 361.997 108.938 362.922 108.938H369.953V111.281H362.922C362.531 111.281 362.336 111.379 362.336 111.574C362.336 111.77 362.531 111.867 362.922 111.867H364.68C366.021 111.867 367.232 112.414 368.312 113.508C369.406 114.589 369.953 115.897 369.953 117.434C369.953 118.957 369.406 120.266 368.312 121.359C367.232 122.453 366.021 123 364.68 123H357.062V120.656H364.094C365.174 120.656 366.027 120.337 366.652 119.699C367.29 119.061 367.609 118.306 367.609 117.434C367.609 116.548 367.29 115.793 366.652 115.168C366.027 114.53 365.174 114.211 364.094 114.211H362.922C361.997 114.211 361.275 113.957 360.754 113.449C360.246 112.928 359.992 112.303 359.992 111.574ZM371.125 123V106.008H373.469V123H371.125ZM374.055 123V106.008H376.398V123H374.055ZM377.57 123V108.938C377.57 106.984 378.547 106.008 380.5 106.008C381.672 106.008 382.453 106.242 382.844 106.711L387.141 111.984C387.401 112.297 387.531 112.258 387.531 111.867V106.008H389.875V118.391C389.927 119.328 389.797 119.562 389.484 119.094L381.125 108.938C380.812 108.547 380.52 108.352 380.246 108.352C379.973 108.352 379.862 108.742 379.914 109.523V123H377.57ZM392.805 106.008V120.07C392.805 122.023 391.828 123 389.875 123C388.703 123 387.922 122.766 387.531 122.297L383.234 117.023C382.974 116.711 382.844 116.75 382.844 117.141V123H380.5V110.617C380.448 109.68 380.578 109.445 380.891 109.914L389.25 120.07C389.562 120.461 389.855 120.656 390.129 120.656C390.402 120.656 390.513 120.266 390.461 119.484V106.008H392.805ZM393.977 106.008H407.453V108.352H393.977V106.008ZM393.977 108.938H400.422V123H398.078V111.281H393.977V108.938ZM401.008 123V108.938H407.453V111.281H403.352V123H401.008Z" fill="#E62222"/>
<path d="M218.013 67.8561C217.444 67.8561 216.899 68.082 216.497 68.4841C216.095 68.8862 215.869 69.4316 215.869 70.0002C215.869 71.0937 215.761 72.6911 215.59 74.2884M220.157 71.2009C220.157 73.7524 220.157 78.0406 219.085 80.7207M223.684 79.6701C223.813 79.0269 224.145 77.2044 224.22 76.4325M207.292 70.0002C207.292 67.7502 208 65.5572 209.316 63.7318C210.631 61.9065 212.488 60.5414 214.623 59.8299C216.757 59.1183 219.062 59.0965 221.209 59.7674C223.357 60.4383 225.239 61.7679 226.589 63.5679M207.292 74.2884H207.303M228.519 74.2884C228.733 72.1443 228.659 68.5487 228.519 67.8561M210.508 78.0406C211.044 76.4325 211.58 73.2164 211.58 70.0002C211.579 69.27 211.703 68.5449 211.945 67.8561M214.421 80.7207C214.646 80.0131 214.904 79.3056 215.032 78.5766M214.797 64.4256C215.775 63.8608 216.884 63.5636 218.014 63.5638C219.143 63.564 220.253 63.8615 221.231 64.4266C222.209 64.9916 223.021 65.8042 223.585 66.7826C224.149 67.761 224.446 68.8708 224.445 70.0002V72.1443M219.443 45.3836L238.597 56.4531C239.481 56.9639 240.025 57.9074 240.025 58.9283V81.0721C240.025 82.0931 239.481 83.0365 238.597 83.5473L219.443 94.6168C218.558 95.1283 217.467 95.1283 216.582 94.6168L197.428 83.5473C196.544 83.0365 196 82.0931 196 81.0721V58.9283C196 57.9074 196.544 56.9639 197.428 56.4531L216.582 45.3836C217.467 44.8721 218.558 44.8721 219.443 45.3836Z" stroke="#E62222" stroke-width="2" stroke-linecap="round" stroke-linejoin="round"/>
<path d="M161.562 25.2812C161.562 21.7656 163.32 20.0078 166.836 20.0078H173.867V22.3516H166.836C164.883 22.3516 163.906 23.3281 163.906 25.2812V37H161.562V25.2812ZM164.492 28.2109V25.2812C164.492 23.7188 165.273 22.9375 166.836 22.9375H173.867V25.2812H167.422C167.031 25.2812 166.836 25.4766 166.836 25.8672H172.109V28.2109H164.492ZM164.492 28.7969H172.109V31.1406H166.836V37H164.492V28.7969ZM187.73 25.2812V31.7266C187.73 35.2422 185.972 37 182.456 37H180.113C176.597 37 174.839 35.2422 174.839 31.7266V25.2812C174.839 21.7656 176.597 20.0078 180.113 20.0078H182.456C185.972 20.0078 187.73 21.7656 187.73 25.2812ZM184.8 25.2812V31.7266C184.8 33.2891 184.019 34.0703 182.456 34.0703H180.113C178.55 34.0703 177.769 33.2891 177.769 31.7266V25.2812C177.769 23.7188 178.55 22.9375 180.113 22.9375H182.456C184.019 22.9375 184.8 23.7188 184.8 25.2812ZM185.386 25.2812C185.386 23.3281 184.409 22.3516 182.456 22.3516H180.113C178.159 22.3516 177.183 23.3281 177.183 25.2812V31.7266C177.183 33.6797 178.159 34.6562 180.113 34.6562H182.456C184.409 34.6562 185.386 33.6797 185.386 31.7266V25.2812ZM182.456 25.8672C182.456 25.4766 182.261 25.2812 181.87 25.2812H180.698C180.308 25.2812 180.113 25.4766 180.113 25.8672V31.1406C180.113 31.5312 180.308 31.7266 180.698 31.7266H181.87C182.261 31.7266 182.456 31.5312 182.456 31.1406V25.8672ZM202.378 25.5742C202.378 27.1107 201.981 28.276 201.187 29.0703C200.405 29.8516 199.741 30.3789 199.195 30.6523L202.378 37H200.034L195.933 28.7969H197.105C197.795 28.7969 198.452 28.4844 199.077 27.8594C199.715 27.2214 200.034 26.4596 200.034 25.5742C200.034 24.7018 199.715 23.9466 199.077 23.3086C198.452 22.6706 197.795 22.3516 197.105 22.3516H188.902V20.0078H197.105C198.446 20.0078 199.657 20.5547 200.737 21.6484C201.831 22.7422 202.378 24.0508 202.378 25.5742ZM199.448 25.5742C199.448 26.3034 199.188 26.9284 198.667 27.4492C198.159 27.957 197.639 28.2109 197.105 28.2109H191.245V37H188.902V25.8672H196.519C196.909 25.8672 197.105 25.7695 197.105 25.5742C197.105 25.3789 196.909 25.2812 196.519 25.2812H188.902V22.9375H197.105C197.639 22.9375 198.159 23.1979 198.667 23.7188C199.188 24.2396 199.448 24.8581 199.448 25.5742ZM199.448 37H197.105L194.175 31.1406V37H191.831V28.7969H195.347L199.448 37ZM203.35 25.2812C203.35 21.7656 205.108 20.0078 208.623 20.0078H215.655V22.3516H208.623C206.67 22.3516 205.694 23.3281 205.694 25.2812V31.7266C205.694 33.6797 206.67 34.6562 208.623 34.6562H215.655V37H208.623C205.108 37 203.35 35.2422 203.35 31.7266V25.2812ZM206.28 28.2109V25.2812C206.28 23.7188 207.061 22.9375 208.623 22.9375H215.655V25.2812H209.209C208.819 25.2812 208.623 25.4766 208.623 25.8672H213.897V28.2109H206.28ZM206.28 28.7969H213.897V31.1406H208.623C208.623 31.5312 208.819 31.7266 209.209 31.7266H215.655V34.0703H208.623C207.061 34.0703 206.28 33.2891 206.28 31.7266V28.7969ZM216.627 37V22.9375C216.627 20.9844 217.603 20.0078 219.556 20.0078C220.728 20.0078 221.509 20.2422 221.9 20.7109L226.197 25.9844C226.457 26.2969 226.588 26.2578 226.588 25.8672V20.0078H228.931V32.3906C228.983 33.3281 228.853 33.5625 228.541 33.0938L220.181 22.9375C219.869 22.5469 219.576 22.3516 219.302 22.3516C219.029 22.3516 218.918 22.7422 218.97 23.5234V37H216.627ZM231.861 20.0078V34.0703C231.861 36.0234 230.884 37 228.931 37C227.759 37 226.978 36.7656 226.588 36.2969L222.291 31.0234C222.03 30.7109 221.9 30.75 221.9 31.1406V37H219.556V24.6172C219.504 23.6797 219.634 23.4453 219.947 23.9141L228.306 34.0703C228.619 34.4609 228.912 34.6562 229.185 34.6562C229.459 34.6562 229.569 34.2656 229.517 33.4844V20.0078H231.861ZM232.833 25.5742C232.833 24.0508 233.373 22.7422 234.454 21.6484C235.548 20.5547 236.765 20.0078 238.106 20.0078H245.723V22.3516H238.692C237.611 22.3516 236.752 22.6706 236.114 23.3086C235.489 23.9466 235.177 24.7018 235.177 25.5742C235.177 26.4596 235.489 27.2214 236.114 27.8594C236.752 28.4844 237.611 28.7969 238.692 28.7969H239.864C240.789 28.7969 241.505 29.0573 242.012 29.5781C242.533 30.0859 242.794 30.7044 242.794 31.4336C242.794 32.1497 242.533 32.7682 242.012 33.2891C241.505 33.8099 240.789 34.0703 239.864 34.0703H232.833V31.7266H239.864C240.255 31.7266 240.45 31.6289 240.45 31.4336C240.45 31.2383 240.255 31.1406 239.864 31.1406H238.106C236.765 31.1406 235.548 30.6003 234.454 29.5195C233.373 28.4258 232.833 27.1107 232.833 25.5742ZM235.762 25.5742C235.762 24.8581 236.016 24.2396 236.524 23.7188C237.045 23.1979 237.768 22.9375 238.692 22.9375H245.723V25.2812H238.692C238.302 25.2812 238.106 25.3789 238.106 25.5742C238.106 25.7695 238.302 25.8672 238.692 25.8672H240.45C241.791 25.8672 243.002 26.4141 244.083 27.5078C245.177 28.5885 245.723 29.8971 245.723 31.4336C245.723 32.957 245.177 34.2656 244.083 35.3594C243.002 36.4531 241.791 37 240.45 37H232.833V34.6562H239.864C240.945 34.6562 241.798 34.3372 242.423 33.6992C243.061 33.0612 243.38 32.306 243.38 31.4336C243.38 30.5482 243.061 29.793 242.423 29.168C241.798 28.5299 240.945 28.2109 239.864 28.2109H238.692C237.768 28.2109 237.045 27.957 236.524 27.4492C236.016 26.9284 235.762 26.3034 235.762 25.5742ZM246.695 37V20.0078H249.039V37H246.695ZM249.625 37V20.0078H251.969V37H249.625ZM252.941 25.2812C252.941 21.7656 254.698 20.0078 258.214 20.0078H265.245V22.3516H258.214C256.261 22.3516 255.284 23.3281 255.284 25.2812V31.7266C255.284 33.6797 256.261 34.6562 258.214 34.6562H265.245V37H258.214C254.698 37 252.941 35.2422 252.941 31.7266V25.2812ZM255.87 25.2812C255.87 23.7188 256.652 22.9375 258.214 22.9375H265.245V25.2812H258.8C258.409 25.2812 258.214 25.4766 258.214 25.8672V31.1406C258.214 31.5312 258.409 31.7266 258.8 31.7266H265.245V34.0703H258.214C256.652 34.0703 255.87 33.2891 255.87 31.7266V25.2812Z" fill="#E62222"/>
<path d="M52.6376 166.797H45.4549C44.8862 166.797 44.3409 166.571 43.9388 166.169C43.5367 165.767 43.3108 165.222 43.3108 164.653V150.717C43.3108 150.148 43.5367 149.603 43.9388 149.2C44.3409 148.798 44.8862 148.572 45.4549 148.572H49.6359C49.9945 148.569 50.3482 148.655 50.6647 148.824C50.9812 148.993 51.2504 149.238 51.4477 149.537L52.316 150.824C52.5112 151.12 52.777 151.364 53.0895 151.532C53.402 151.7 53.7514 151.789 54.1063 151.789H62.6077C63.1763 151.789 63.7217 152.015 64.1238 152.417C64.5259 152.819 64.7518 153.364 64.7518 153.933V158.328M63.6797 167.869L62.0717 166.261M62.6077 163.581C62.6077 165.357 61.1678 166.797 59.3915 166.797C57.6153 166.797 56.1754 165.357 56.1754 163.581C56.1754 161.805 57.6153 160.365 59.3915 160.365C61.1678 160.365 62.6077 161.805 62.6077 163.581ZM55.4617 133.604L74.6157 144.674C75.4996 145.185 76.044 146.128 76.044 147.149V169.293C76.044 170.314 75.4996 171.257 74.6157 171.768L55.4617 182.838C54.5767 183.349 53.4859 183.349 52.6008 182.838L33.4469 171.768C32.563 171.257 32.0186 170.314 32.0186 169.293V147.149C32.0186 146.128 32.563 145.185 33.4469 144.674L52.6008 133.604C53.4859 133.093 54.5767 133.093 55.4617 133.604Z" stroke="#E62222" stroke-width="2" stroke-linecap="round" stroke-linejoin="round"/>
<path d="M13.4766 111.574C13.4766 113.11 13.0794 114.276 12.2852 115.07C11.5039 115.851 10.8398 116.378 10.293 116.652L13.4766 123H11.1328L7.03125 114.796H8.20312C8.89323 114.796 9.55078 114.484 10.1758 113.859C10.8138 113.221 11.1328 112.459 11.1328 111.574C11.1328 110.701 10.8138 109.946 10.1758 109.308C9.55078 108.67 8.89323 108.351 8.20312 108.351H0V106.007H8.20312C9.54427 106.007 10.7552 106.554 11.8359 107.648C12.9297 108.742 13.4766 110.05 13.4766 111.574ZM10.5469 111.574C10.5469 112.303 10.2865 112.928 9.76562 113.449C9.25781 113.957 8.73698 114.21 8.20312 114.21H2.34375V123H0V111.867H7.61719C8.00781 111.867 8.20312 111.769 8.20312 111.574C8.20312 111.378 8.00781 111.281 7.61719 111.281H0V108.937H8.20312C8.73698 108.937 9.25781 109.197 9.76562 109.718C10.2865 110.239 10.5469 110.858 10.5469 111.574ZM10.5469 123H8.20312L5.27344 117.14V123H2.92969V114.796H6.44531L10.5469 123ZM14.6484 111.281C14.6484 107.765 16.4062 106.007 19.9219 106.007H26.9531V108.351H19.9219C17.9688 108.351 16.9922 109.328 16.9922 111.281V117.726C16.9922 119.679 17.9688 120.656 19.9219 120.656H26.9531V123H19.9219C16.4062 123 14.6484 121.242 14.6484 117.726V111.281ZM17.5781 114.21V111.281C17.5781 109.718 18.3594 108.937 19.9219 108.937H26.9531V111.281H20.5078C20.1172 111.281 19.9219 111.476 19.9219 111.867H25.1953V114.21H17.5781ZM17.5781 114.796H25.1953V117.14H19.9219C19.9219 117.531 20.1172 117.726 20.5078 117.726H26.9531V120.07H19.9219C18.3594 120.07 17.5781 119.289 17.5781 117.726V114.796ZM33.3008 108.351V106.007H43.3594L37.6953 121.046C37.2396 122.348 36.263 123 34.7656 123C33.4635 123 32.487 122.348 31.8359 121.046L26.3672 106.007H28.7109L33.9844 120.265C34.1797 120.526 34.4401 120.656 34.7656 120.656C35.1562 120.656 35.4167 120.526 35.5469 120.265L40.2344 108.351H33.3008ZM33.3008 108.937H39.2578L35.1562 119.679C35.0911 119.94 34.9609 120.07 34.7656 120.07C34.5703 120.07 34.4401 119.94 34.375 119.679L29.2969 106.007H31.6406L33.3008 110.207V108.937ZM34.7656 114.015L35.8398 111.281H33.6914L34.7656 114.015ZM44.5312 111.281C44.5312 107.765 46.2891 106.007 49.8047 106.007H56.8359V108.351H49.8047C47.8516 108.351 46.875 109.328 46.875 111.281V117.726C46.875 119.679 47.8516 120.656 49.8047 120.656H56.8359V123H49.8047C46.2891 123 44.5312 121.242 44.5312 117.726V111.281ZM47.4609 114.21V111.281C47.4609 109.718 48.2422 108.937 49.8047 108.937H56.8359V111.281H50.3906C50 111.281 49.8047 111.476 49.8047 111.867H55.0781V114.21H47.4609ZM47.4609 114.796H55.0781V117.14H49.8047C49.8047 117.531 50 117.726 50.3906 117.726H56.8359V120.07H49.8047C48.2422 120.07 47.4609 119.289 47.4609 117.726V114.796ZM71.4844 111.574C71.4844 113.11 71.0872 114.276 70.293 115.07C69.5117 115.851 68.8477 116.378 68.3008 116.652L71.4844 123H69.1406L65.0391 114.796H66.2109C66.901 114.796 67.5586 114.484 68.1836 113.859C68.8216 113.221 69.1406 112.459 69.1406 111.574C69.1406 110.701 68.8216 109.946 68.1836 109.308C67.5586 108.67 66.901 108.351 66.2109 108.351H58.0078V106.007H66.2109C67.5521 106.007 68.763 106.554 69.8438 107.648C70.9375 108.742 71.4844 110.05 71.4844 111.574ZM68.5547 111.574C68.5547 112.303 68.2943 112.928 67.7734 113.449C67.2656 113.957 66.7448 114.21 66.2109 114.21H60.3516V123H58.0078V111.867H65.625C66.0156 111.867 66.2109 111.769 66.2109 111.574C66.2109 111.378 66.0156 111.281 65.625 111.281H58.0078V108.937H66.2109C66.7448 108.937 67.2656 109.197 67.7734 109.718C68.2943 110.239 68.5547 110.858 68.5547 111.574ZM68.5547 123H66.2109L63.2812 117.14V123H60.9375V114.796H64.4531L68.5547 123ZM72.6562 111.574C72.6562 110.05 73.1966 108.742 74.2773 107.648C75.3711 106.554 76.5885 106.007 77.9297 106.007H85.5469V108.351H78.5156C77.4349 108.351 76.5755 108.67 75.9375 109.308C75.3125 109.946 75 110.701 75 111.574C75 112.459 75.3125 113.221 75.9375 113.859C76.5755 114.484 77.4349 114.796 78.5156 114.796H79.6875C80.612 114.796 81.3281 115.057 81.8359 115.578C82.3568 116.085 82.6172 116.704 82.6172 117.433C82.6172 118.149 82.3568 118.768 81.8359 119.289C81.3281 119.809 80.612 120.07 79.6875 120.07H72.6562V117.726H79.6875C80.0781 117.726 80.2734 117.628 80.2734 117.433C80.2734 117.238 80.0781 117.14 79.6875 117.14H77.9297C76.5885 117.14 75.3711 116.6 74.2773 115.519C73.1966 114.425 72.6562 113.11 72.6562 111.574ZM75.5859 111.574C75.5859 110.858 75.8398 110.239 76.3477 109.718C76.8685 109.197 77.5911 108.937 78.5156 108.937H85.5469V111.281H78.5156C78.125 111.281 77.9297 111.378 77.9297 111.574C77.9297 111.769 78.125 111.867 78.5156 111.867H80.2734C81.6146 111.867 82.8255 112.414 83.9062 113.507C85 114.588 85.5469 115.897 85.5469 117.433C85.5469 118.957 85 120.265 83.9062 121.359C82.8255 122.453 81.6146 123 80.2734 123H72.6562V120.656H79.6875C80.7682 120.656 81.6211 120.337 82.2461 119.699C82.8841 119.061 83.2031 118.306 83.2031 117.433C83.2031 116.548 82.8841 115.792 82.2461 115.167C81.6211 114.529 80.7682 114.21 79.6875 114.21H78.5156C77.5911 114.21 76.8685 113.957 76.3477 113.449C75.8398 112.928 75.5859 112.303 75.5859 111.574ZM86.7188 111.281C86.7188 107.765 88.4766 106.007 91.9922 106.007H99.0234V108.351H91.9922C90.0391 108.351 89.0625 109.328 89.0625 111.281V117.726C89.0625 119.679 90.0391 120.656 91.9922 120.656H99.0234V123H91.9922C88.4766 123 86.7188 121.242 86.7188 117.726V111.281ZM89.6484 114.21V111.281C89.6484 109.718 90.4297 108.937 91.9922 108.937H99.0234V111.281H92.5781C92.1875 111.281 91.9922 111.476 91.9922 111.867H97.2656V114.21H89.6484ZM89.6484 114.796H97.2656V117.14H91.9922C91.9922 117.531 92.1875 117.726 92.5781 117.726H99.0234V120.07H91.9922C90.4297 120.07 89.6484 119.289 89.6484 117.726V114.796Z" fill="#E62222"/>
<path d="M54.3579 334.607V338.895M54.3579 343.183H54.3682M62.9343 339.967C62.9343 345.327 59.1822 348.008 54.7224 349.562C54.4889 349.641 54.2352 349.637 54.0042 349.551C49.5337 348.008 45.7816 345.327 45.7816 339.967V332.463C45.7816 332.179 45.8945 331.906 46.0956 331.705C46.2966 331.504 46.5693 331.391 46.8536 331.391C48.9977 331.391 51.6778 330.104 53.5432 328.475C53.7703 328.281 54.0592 328.174 54.3579 328.174C54.6567 328.174 54.9456 328.281 55.1727 328.475C57.0488 330.115 59.7182 331.391 61.8623 331.391C62.1466 331.391 62.4193 331.504 62.6203 331.705C62.8214 331.906 62.9343 332.179 62.9343 332.463V339.967ZM55.7884 314.279L74.9423 325.348C75.8263 325.859 76.3707 326.802 76.3707 327.823V349.967C76.3707 350.988 75.8263 351.932 74.9423 352.442L55.7884 363.512C54.9034 364.023 53.8125 364.023 52.9275 363.512L33.7735 352.442C32.8896 351.932 32.3452 350.988 32.3452 349.967V327.823C32.3452 326.802 32.8896 325.859 33.7736 325.348L52.9275 314.279C53.8125 313.767 54.9034 313.767 55.7884 314.279Z" stroke="#E62222" stroke-width="2" stroke-linecap="round" stroke-linejoin="round"/>
<path d="M41.2476 393.215C41.2476 394.751 40.7007 396.066 39.6069 397.16C38.5262 398.241 37.3153 398.781 35.9741 398.781H33.6304V396.438H35.9741C36.6642 396.438 37.3218 396.125 37.9468 395.5C38.5848 394.862 38.9038 394.1 38.9038 393.215C38.9038 392.342 38.5848 391.587 37.9468 390.949C37.3218 390.311 36.6642 389.992 35.9741 389.992H30.1147V404.641H27.771V387.648H35.9741C37.3153 387.648 38.5262 388.195 39.6069 389.289C40.7007 390.383 41.2476 391.691 41.2476 393.215ZM38.3179 393.215C38.3179 393.944 38.0575 394.569 37.5366 395.09C37.0288 395.598 36.508 395.852 35.9741 395.852H33.6304V393.508H35.3882C35.7788 393.508 35.9741 393.41 35.9741 393.215C35.9741 393.02 35.7788 392.922 35.3882 392.922H33.0444V404.641H30.7007V390.578H35.9741C36.508 390.578 37.0288 390.839 37.5366 391.359C38.0575 391.88 38.3179 392.499 38.3179 393.215ZM47.6929 404.641C44.1772 404.641 42.4194 402.883 42.4194 399.367V387.648H44.7632V399.367C44.7632 401.32 45.7397 402.297 47.6929 402.297H54.1382C56.0913 402.297 57.0679 401.32 57.0679 399.367V387.648H59.4116V399.367C59.4116 402.883 57.6538 404.641 54.1382 404.641H47.6929ZM50.6226 401.711H47.6929C46.1304 401.711 45.3491 400.93 45.3491 399.367V387.648H47.6929V398.781C47.6929 399.172 47.8882 399.367 48.2788 399.367V390.578H50.6226V401.711ZM51.2085 390.578H53.5522V399.367C53.9429 399.367 54.1382 399.172 54.1382 398.781V387.648H56.4819V399.367C56.4819 400.93 55.7007 401.711 54.1382 401.711H51.2085V390.578ZM60.5835 404.641V390.578C60.5835 388.625 61.5601 387.648 63.5132 387.648C64.6851 387.648 65.4663 387.883 65.8569 388.352L70.1538 393.625C70.4142 393.938 70.5444 393.898 70.5444 393.508V387.648H72.8882V400.031C72.9403 400.969 72.8101 401.203 72.4976 400.734L64.1382 390.578C63.8257 390.188 63.5327 389.992 63.2593 389.992C62.9858 389.992 62.8752 390.383 62.9272 391.164V404.641H60.5835ZM75.8179 387.648V401.711C75.8179 403.664 74.8413 404.641 72.8882 404.641C71.7163 404.641 70.9351 404.406 70.5444 403.938L66.2476 398.664C65.9871 398.352 65.8569 398.391 65.8569 398.781V404.641H63.5132V392.258C63.4611 391.32 63.5913 391.086 63.9038 391.555L72.2632 401.711C72.5757 402.102 72.8687 402.297 73.1421 402.297C73.4155 402.297 73.5262 401.906 73.4741 401.125V387.648H75.8179Z" fill="#E62222"/>
<path d="M213.092 433.309L215.237 431.164L213.092 429.02M217.381 435.453H221.669M210.948 424.732H225.957C227.141 424.732 228.101 425.692 228.101 426.876V441.885C228.101 443.069 227.141 444.029 225.957 444.029H210.948C209.764 444.029 208.804 443.069 208.804 441.885V426.876C208.804 425.692 209.764 424.732 210.948 424.732ZM219.883 409.764L239.037 420.833C239.921 421.344 240.465 422.288 240.465 423.309V445.453C240.465 446.473 239.921 447.417 239.037 447.928L219.883 458.997C218.998 459.509 217.907 459.509 217.022 458.997L197.868 447.928C196.984 447.417 196.44 446.473 196.44 445.453V423.309C196.44 422.288 196.984 421.344 197.868 420.833L217.022 409.764C217.907 409.252 218.998 409.252 219.883 409.764Z" stroke="#E62222" stroke-width="2" stroke-linecap="round" stroke-linejoin="round"/>
<path d="M191.294 496.124V479.131H194.81C196.112 479.131 197.088 479.717 197.739 480.889L198.911 483.233L200.083 480.889C200.734 479.717 201.711 479.131 203.013 479.131H206.528V496.124H204.185V481.475H203.599C202.817 481.475 202.231 481.866 201.841 482.647L198.911 489.092L195.981 482.647C195.591 481.866 195.005 481.475 194.224 481.475H193.638V496.124H191.294ZM194.224 496.124V482.061C194.614 482.061 194.875 482.191 195.005 482.452L198.911 490.85L202.817 482.452C202.948 482.191 203.208 482.061 203.599 482.061V496.124H201.255V490.85L198.911 496.124L196.567 490.85V496.124H194.224ZM207.7 496.124V479.131H210.044V496.124H207.7ZM210.63 496.124V479.131H212.974V496.124H210.63ZM214.146 484.698C214.146 483.174 214.686 481.866 215.767 480.772C216.86 479.678 218.078 479.131 219.419 479.131H227.036V481.475H220.005C218.924 481.475 218.065 481.794 217.427 482.432C216.802 483.07 216.489 483.825 216.489 484.698C216.489 485.583 216.802 486.345 217.427 486.983C218.065 487.608 218.924 487.92 220.005 487.92H221.177C222.101 487.92 222.817 488.181 223.325 488.702C223.846 489.209 224.106 489.828 224.106 490.557C224.106 491.273 223.846 491.892 223.325 492.413C222.817 492.933 222.101 493.194 221.177 493.194H214.146V490.85H221.177C221.567 490.85 221.763 490.752 221.763 490.557C221.763 490.362 221.567 490.264 221.177 490.264H219.419C218.078 490.264 216.86 489.724 215.767 488.643C214.686 487.549 214.146 486.234 214.146 484.698ZM217.075 484.698C217.075 483.982 217.329 483.363 217.837 482.842C218.358 482.321 219.08 482.061 220.005 482.061H227.036V484.405H220.005C219.614 484.405 219.419 484.502 219.419 484.698C219.419 484.893 219.614 484.991 220.005 484.991H221.763C223.104 484.991 224.315 485.538 225.396 486.631C226.489 487.712 227.036 489.021 227.036 490.557C227.036 492.081 226.489 493.389 225.396 494.483C224.315 495.577 223.104 496.124 221.763 496.124H214.146V493.78H221.177C222.257 493.78 223.11 493.461 223.735 492.823C224.373 492.185 224.692 491.43 224.692 490.557C224.692 489.672 224.373 488.917 223.735 488.292C223.11 487.653 222.257 487.334 221.177 487.334H220.005C219.08 487.334 218.358 487.081 217.837 486.573C217.329 486.052 217.075 485.427 217.075 484.698ZM228.208 484.405C228.208 480.889 229.966 479.131 233.481 479.131H240.513V481.475H233.481C231.528 481.475 230.552 482.452 230.552 484.405V490.85C230.552 492.803 231.528 493.78 233.481 493.78H240.513V496.124H233.481C229.966 496.124 228.208 494.366 228.208 490.85V484.405ZM231.138 484.405C231.138 482.842 231.919 482.061 233.481 482.061H240.513V484.405H234.067C233.677 484.405 233.481 484.6 233.481 484.991V490.264C233.481 490.655 233.677 490.85 234.067 490.85H240.513V493.194H233.481C231.919 493.194 231.138 492.413 231.138 490.85V484.405Z" fill="#E62222"/>
<path d="M371.469 337.823V333.535C371.469 332.113 372.034 330.75 373.039 329.745C374.045 328.739 375.408 328.175 376.83 328.175C378.251 328.175 379.615 328.739 380.62 329.745C381.625 330.75 382.19 332.113 382.19 333.535V337.823M369.325 337.823H384.334C385.518 337.823 386.478 338.783 386.478 339.967V347.472C386.478 348.656 385.518 349.616 384.334 349.616H369.325C368.141 349.616 367.181 348.656 367.181 347.472V339.967C367.181 338.783 368.141 337.823 369.325 337.823ZM378.26 314.279L397.414 325.348C398.298 325.859 398.842 326.802 398.842 327.823V349.967C398.842 350.988 398.298 351.932 397.414 352.442L378.26 363.512C377.375 364.023 376.284 364.023 375.399 363.512L356.245 352.442C355.361 351.932 354.817 350.988 354.817 349.967V327.823C354.817 326.802 355.361 325.859 356.245 325.348L375.399 314.279C376.284 313.767 377.375 313.767 378.26 314.279Z" stroke="#E62222" stroke-width="2" stroke-linecap="round" stroke-linejoin="round"/>
<path d="M329.66 399.783C329.66 396.267 331.417 394.509 334.933 394.509H341.964V396.853H334.933C332.98 396.853 332.003 397.83 332.003 399.783V406.228C332.003 408.181 332.98 409.158 334.933 409.158H341.964V411.501H334.933C331.417 411.501 329.66 409.744 329.66 406.228V399.783ZM332.589 399.783C332.589 398.22 333.371 397.439 334.933 397.439H341.964V399.783H335.519C335.128 399.783 334.933 399.978 334.933 400.369V405.642C334.933 406.033 335.128 406.228 335.519 406.228H341.964V408.572H334.933C333.371 408.572 332.589 407.791 332.589 406.228V399.783ZM356.613 400.076C356.613 401.612 356.216 402.778 355.421 403.572C354.64 404.353 353.976 404.88 353.429 405.154L356.613 411.501H354.269L350.167 403.298H351.339C352.029 403.298 352.687 402.986 353.312 402.361C353.95 401.723 354.269 400.961 354.269 400.076C354.269 399.203 353.95 398.448 353.312 397.81C352.687 397.172 352.029 396.853 351.339 396.853H343.136V394.509H351.339C352.681 394.509 353.891 395.056 354.972 396.15C356.066 397.244 356.613 398.552 356.613 400.076ZM353.683 400.076C353.683 400.805 353.423 401.43 352.902 401.951C352.394 402.458 351.873 402.712 351.339 402.712H345.48V411.501H343.136V400.369H350.753C351.144 400.369 351.339 400.271 351.339 400.076C351.339 399.88 351.144 399.783 350.753 399.783H343.136V397.439H351.339C351.873 397.439 352.394 397.699 352.902 398.22C353.423 398.741 353.683 399.36 353.683 400.076ZM353.683 411.501H351.339L348.41 405.642V411.501H346.066V403.298H349.582L353.683 411.501ZM364.816 411.501H362.472V403.005L357.785 394.509H360.128L364.816 403.005V411.501ZM360.714 394.509H363.058L365.109 398.22L367.16 394.509H369.503L366.281 400.349L366.574 400.876L370.089 394.509H372.433L367.746 403.005V411.501H365.402L365.421 403.025L360.714 394.509ZM387.082 400.076C387.082 401.612 386.535 402.927 385.441 404.021C384.36 405.102 383.149 405.642 381.808 405.642H379.464V403.298H381.808C382.498 403.298 383.156 402.986 383.781 402.361C384.419 401.723 384.738 400.961 384.738 400.076C384.738 399.203 384.419 398.448 383.781 397.81C383.156 397.172 382.498 396.853 381.808 396.853H375.949V411.501H373.605V394.509H381.808C383.149 394.509 384.36 395.056 385.441 396.15C386.535 397.244 387.082 398.552 387.082 400.076ZM384.152 400.076C384.152 400.805 383.891 401.43 383.371 401.951C382.863 402.458 382.342 402.712 381.808 402.712H379.464V400.369H381.222C381.613 400.369 381.808 400.271 381.808 400.076C381.808 399.88 381.613 399.783 381.222 399.783H378.878V411.501H376.535V397.439H381.808C382.342 397.439 382.863 397.699 383.371 398.22C383.891 398.741 384.152 399.36 384.152 400.076ZM388.253 394.509H401.73V396.853H388.253V394.509ZM388.253 397.439H394.699V411.501H392.355V399.783H388.253V397.439ZM395.285 411.501V397.439H401.73V399.783H397.628V411.501H395.285ZM415.792 399.783V406.228C415.792 409.744 414.035 411.501 410.519 411.501H408.175C404.66 411.501 402.902 409.744 402.902 406.228V399.783C402.902 396.267 404.66 394.509 408.175 394.509H410.519C414.035 394.509 415.792 396.267 415.792 399.783ZM412.863 399.783V406.228C412.863 407.791 412.082 408.572 410.519 408.572H408.175C406.613 408.572 405.832 407.791 405.832 406.228V399.783C405.832 398.22 406.613 397.439 408.175 397.439H410.519C412.082 397.439 412.863 398.22 412.863 399.783ZM413.449 399.783C413.449 397.83 412.472 396.853 410.519 396.853H408.175C406.222 396.853 405.246 397.83 405.246 399.783V406.228C405.246 408.181 406.222 409.158 408.175 409.158H410.519C412.472 409.158 413.449 408.181 413.449 406.228V399.783ZM410.519 400.369C410.519 399.978 410.324 399.783 409.933 399.783H408.761C408.371 399.783 408.175 399.978 408.175 400.369V405.642C408.175 406.033 408.371 406.228 408.761 406.228H409.933C410.324 406.228 410.519 406.033 410.519 405.642V400.369Z" fill="#E62222"/>
<path d="M218.453 212.123L94.0952 175.816L124.97 301.317L218.453 320.471L328.517 311.323L301.644 200.116L218.453 212.123Z" fill="#E62222" fill-opacity="0.5" stroke="#E62222" stroke-width="2"/>
</svg>
