<svg width="494" height="510" viewBox="0 0 494 510" fill="none" xmlns="http://www.w3.org/2000/svg">
<path d="M228.45 23.8561C227.882 23.8561 227.336 24.082 226.934 24.4841C226.532 24.8862 226.306 25.4316 226.306 26.0002C226.306 27.0937 226.199 28.6911 226.027 30.2884M230.594 27.2009C230.594 29.7524 230.594 34.0406 229.522 36.7207M234.121 35.6701C234.25 35.0269 234.582 33.2044 234.657 32.4325M217.73 26.0002C217.73 23.7502 218.438 21.5572 219.753 19.7318C221.069 17.9065 222.926 16.5414 225.06 15.8299C227.195 15.1183 229.499 15.0965 231.647 15.7674C233.794 16.4383 235.677 17.7679 237.027 19.5679M217.73 30.2884H217.74M238.956 30.2884C239.171 28.1443 239.097 24.5487 238.956 23.8561M220.946 34.0406C221.482 32.4325 222.018 29.2164 222.018 26.0002C222.017 25.27 222.14 24.5449 222.382 23.8561M224.859 36.7207C225.084 36.0131 225.341 35.3056 225.47 34.5766M225.234 20.4256C226.212 19.8608 227.322 19.5636 228.451 19.5638C229.581 19.564 230.69 19.8615 231.668 20.4266C232.646 20.9916 233.458 21.8042 234.022 22.7826C234.587 23.761 234.883 24.8708 234.883 26.0002V28.1443M229.881 1.38362L249.035 12.4531C249.919 12.9639 250.463 13.9074 250.463 14.9283V37.0721C250.463 38.0931 249.919 39.0365 249.035 39.5473L229.881 50.6168C228.996 51.1283 227.905 51.1283 227.02 50.6168L207.866 39.5473C206.982 39.0365 206.438 38.0931 206.438 37.0721V14.9283C206.438 13.9074 206.982 12.9639 207.866 12.4531L227.02 1.38362C227.905 0.872126 228.996 0.872128 229.881 1.38362Z" stroke="#E62222" stroke-width="2" stroke-linecap="round" stroke-linejoin="round"/>
<path d="M178 76.2812C178 72.7656 179.758 71.0078 183.273 71.0078H190.305V73.3516H183.273C181.32 73.3516 180.344 74.3281 180.344 76.2812V88H178V76.2812ZM180.93 79.2109V76.2812C180.93 74.7188 181.711 73.9375 183.273 73.9375H190.305V76.2812H183.859C183.469 76.2812 183.273 76.4766 183.273 76.8672H188.547V79.2109H180.93ZM180.93 79.7969H188.547V82.1406H183.273V88H180.93V79.7969ZM204.167 76.2812V82.7266C204.167 86.2422 202.409 88 198.894 88H196.55C193.034 88 191.277 86.2422 191.277 82.7266V76.2812C191.277 72.7656 193.034 71.0078 196.55 71.0078H198.894C202.409 71.0078 204.167 72.7656 204.167 76.2812ZM201.238 76.2812V82.7266C201.238 84.2891 200.456 85.0703 198.894 85.0703H196.55C194.988 85.0703 194.206 84.2891 194.206 82.7266V76.2812C194.206 74.7188 194.988 73.9375 196.55 73.9375H198.894C200.456 73.9375 201.238 74.7188 201.238 76.2812ZM201.823 76.2812C201.823 74.3281 200.847 73.3516 198.894 73.3516H196.55C194.597 73.3516 193.62 74.3281 193.62 76.2812V82.7266C193.62 84.6797 194.597 85.6562 196.55 85.6562H198.894C200.847 85.6562 201.823 84.6797 201.823 82.7266V76.2812ZM198.894 76.8672C198.894 76.4766 198.698 76.2812 198.308 76.2812H197.136C196.745 76.2812 196.55 76.4766 196.55 76.8672V82.1406C196.55 82.5312 196.745 82.7266 197.136 82.7266H198.308C198.698 82.7266 198.894 82.5312 198.894 82.1406V76.8672ZM218.816 76.5742C218.816 78.1107 218.418 79.276 217.624 80.0703C216.843 80.8516 216.179 81.3789 215.632 81.6523L218.816 88H216.472L212.37 79.7969H213.542C214.232 79.7969 214.89 79.4844 215.515 78.8594C216.153 78.2214 216.472 77.4596 216.472 76.5742C216.472 75.7018 216.153 74.9466 215.515 74.3086C214.89 73.6706 214.232 73.3516 213.542 73.3516H205.339V71.0078H213.542C214.883 71.0078 216.094 71.5547 217.175 72.6484C218.269 73.7422 218.816 75.0508 218.816 76.5742ZM215.886 76.5742C215.886 77.3034 215.626 77.9284 215.105 78.4492C214.597 78.957 214.076 79.2109 213.542 79.2109H207.683V88H205.339V76.8672H212.956C213.347 76.8672 213.542 76.7695 213.542 76.5742C213.542 76.3789 213.347 76.2812 212.956 76.2812H205.339V73.9375H213.542C214.076 73.9375 214.597 74.1979 215.105 74.7188C215.626 75.2396 215.886 75.8581 215.886 76.5742ZM215.886 88H213.542L210.612 82.1406V88H208.269V79.7969H211.784L215.886 88ZM219.787 76.2812C219.787 72.7656 221.545 71.0078 225.061 71.0078H232.092V73.3516H225.061C223.108 73.3516 222.131 74.3281 222.131 76.2812V82.7266C222.131 84.6797 223.108 85.6562 225.061 85.6562H232.092V88H225.061C221.545 88 219.787 86.2422 219.787 82.7266V76.2812ZM222.717 79.2109V76.2812C222.717 74.7188 223.498 73.9375 225.061 73.9375H232.092V76.2812H225.647C225.256 76.2812 225.061 76.4766 225.061 76.8672H230.334V79.2109H222.717ZM222.717 79.7969H230.334V82.1406H225.061C225.061 82.5312 225.256 82.7266 225.647 82.7266H232.092V85.0703H225.061C223.498 85.0703 222.717 84.2891 222.717 82.7266V79.7969ZM233.064 88V73.9375C233.064 71.9844 234.041 71.0078 235.994 71.0078C237.166 71.0078 237.947 71.2422 238.338 71.7109L242.634 76.9844C242.895 77.2969 243.025 77.2578 243.025 76.8672V71.0078H245.369V83.3906C245.421 84.3281 245.291 84.5625 244.978 84.0938L236.619 73.9375C236.306 73.5469 236.013 73.3516 235.74 73.3516C235.466 73.3516 235.356 73.7422 235.408 74.5234V88H233.064ZM248.298 71.0078V85.0703C248.298 87.0234 247.322 88 245.369 88C244.197 88 243.416 87.7656 243.025 87.2969L238.728 82.0234C238.468 81.7109 238.338 81.75 238.338 82.1406V88H235.994V75.6172C235.942 74.6797 236.072 74.4453 236.384 74.9141L244.744 85.0703C245.056 85.4609 245.349 85.6562 245.623 85.6562C245.896 85.6562 246.007 85.2656 245.955 84.4844V71.0078H248.298ZM249.27 76.5742C249.27 75.0508 249.811 73.7422 250.891 72.6484C251.985 71.5547 253.203 71.0078 254.544 71.0078H262.161V73.3516H255.13C254.049 73.3516 253.19 73.6706 252.552 74.3086C251.927 74.9466 251.614 75.7018 251.614 76.5742C251.614 77.4596 251.927 78.2214 252.552 78.8594C253.19 79.4844 254.049 79.7969 255.13 79.7969H256.302C257.226 79.7969 257.942 80.0573 258.45 80.5781C258.971 81.0859 259.231 81.7044 259.231 82.4336C259.231 83.1497 258.971 83.7682 258.45 84.2891C257.942 84.8099 257.226 85.0703 256.302 85.0703H249.27V82.7266H256.302C256.692 82.7266 256.887 82.6289 256.887 82.4336C256.887 82.2383 256.692 82.1406 256.302 82.1406H254.544C253.203 82.1406 251.985 81.6003 250.891 80.5195C249.811 79.4258 249.27 78.1107 249.27 76.5742ZM252.2 76.5742C252.2 75.8581 252.454 75.2396 252.962 74.7188C253.483 74.1979 254.205 73.9375 255.13 73.9375H262.161V76.2812H255.13C254.739 76.2812 254.544 76.3789 254.544 76.5742C254.544 76.7695 254.739 76.8672 255.13 76.8672H256.887C258.229 76.8672 259.44 77.4141 260.52 78.5078C261.614 79.5885 262.161 80.8971 262.161 82.4336C262.161 83.957 261.614 85.2656 260.52 86.3594C259.44 87.4531 258.229 88 256.887 88H249.27V85.6562H256.302C257.382 85.6562 258.235 85.3372 258.86 84.6992C259.498 84.0612 259.817 83.306 259.817 82.4336C259.817 81.5482 259.498 80.793 258.86 80.168C258.235 79.5299 257.382 79.2109 256.302 79.2109H255.13C254.205 79.2109 253.483 78.957 252.962 78.4492C252.454 77.9284 252.2 77.3034 252.2 76.5742ZM263.133 88V71.0078H265.477V88H263.133ZM266.062 88V71.0078H268.406V88H266.062ZM269.378 76.2812C269.378 72.7656 271.136 71.0078 274.652 71.0078H281.683V73.3516H274.652C272.698 73.3516 271.722 74.3281 271.722 76.2812V82.7266C271.722 84.6797 272.698 85.6562 274.652 85.6562H281.683V88H274.652C271.136 88 269.378 86.2422 269.378 82.7266V76.2812ZM272.308 76.2812C272.308 74.7188 273.089 73.9375 274.652 73.9375H281.683V76.2812H275.238C274.847 76.2812 274.652 76.4766 274.652 76.8672V82.1406C274.652 82.5312 274.847 82.7266 275.238 82.7266H281.683V85.0703H274.652C273.089 85.0703 272.308 84.2891 272.308 82.7266V76.2812Z" fill="#E62222"/>
<path d="M437.638 298.577H430.455C429.886 298.577 429.341 298.351 428.939 297.949C428.537 297.547 428.311 297.001 428.311 296.433V282.496C428.311 281.927 428.537 281.382 428.939 280.98C429.341 280.578 429.886 280.352 430.455 280.352H434.636C434.994 280.348 435.348 280.435 435.665 280.603C435.981 280.772 436.25 281.017 436.448 281.317L437.316 282.603C437.511 282.9 437.777 283.143 438.089 283.311C438.402 283.48 438.751 283.568 439.106 283.568H447.608C448.176 283.568 448.722 283.794 449.124 284.196C449.526 284.598 449.752 285.143 449.752 285.712V290.107M448.68 299.649L447.072 298.041M447.608 295.36C447.608 297.137 446.168 298.577 444.391 298.577C442.615 298.577 441.175 297.137 441.175 295.36C441.175 293.584 442.615 292.144 444.391 292.144C446.168 292.144 447.608 293.584 447.608 295.36ZM440.462 265.384L459.616 276.453C460.5 276.964 461.044 277.907 461.044 278.928V301.072C461.044 302.093 460.5 303.036 459.616 303.547L440.462 314.617C439.577 315.128 438.486 315.128 437.601 314.617L418.447 303.547C417.563 303.036 417.018 302.093 417.018 301.072V278.928C417.018 277.907 417.563 276.964 418.447 276.453L437.601 265.384C438.486 264.872 439.577 264.872 440.462 265.384Z" stroke="#E62222" stroke-width="2" stroke-linecap="round" stroke-linejoin="round"/>
<path d="M398.477 340.353C398.477 341.89 398.079 343.055 397.285 343.849C396.504 344.63 395.84 345.158 395.293 345.431L398.477 351.779H396.133L392.031 343.576H393.203C393.893 343.576 394.551 343.263 395.176 342.638C395.814 342 396.133 341.239 396.133 340.353C396.133 339.481 395.814 338.726 395.176 338.088C394.551 337.45 393.893 337.13 393.203 337.13H385V334.787H393.203C394.544 334.787 395.755 335.334 396.836 336.427C397.93 337.521 398.477 338.83 398.477 340.353ZM395.547 340.353C395.547 341.082 395.286 341.707 394.766 342.228C394.258 342.736 393.737 342.99 393.203 342.99H387.344V351.779H385V340.646H392.617C393.008 340.646 393.203 340.548 393.203 340.353C393.203 340.158 393.008 340.06 392.617 340.06H385V337.716H393.203C393.737 337.716 394.258 337.977 394.766 338.498C395.286 339.019 395.547 339.637 395.547 340.353ZM395.547 351.779H393.203L390.273 345.92V351.779H387.93V343.576H391.445L395.547 351.779ZM399.648 340.06C399.648 336.545 401.406 334.787 404.922 334.787H411.953V337.13H404.922C402.969 337.13 401.992 338.107 401.992 340.06V346.505C401.992 348.459 402.969 349.435 404.922 349.435H411.953V351.779H404.922C401.406 351.779 399.648 350.021 399.648 346.505V340.06ZM402.578 342.99V340.06C402.578 338.498 403.359 337.716 404.922 337.716H411.953V340.06H405.508C405.117 340.06 404.922 340.255 404.922 340.646H410.195V342.99H402.578ZM402.578 343.576H410.195V345.92H404.922C404.922 346.31 405.117 346.505 405.508 346.505H411.953V348.849H404.922C403.359 348.849 402.578 348.068 402.578 346.505V343.576ZM418.301 337.13V334.787H428.359L422.695 349.826C422.24 351.128 421.263 351.779 419.766 351.779C418.464 351.779 417.487 351.128 416.836 349.826L411.367 334.787H413.711L418.984 349.045C419.18 349.305 419.44 349.435 419.766 349.435C420.156 349.435 420.417 349.305 420.547 349.045L425.234 337.13H418.301ZM418.301 337.716H424.258L420.156 348.459C420.091 348.719 419.961 348.849 419.766 348.849C419.57 348.849 419.44 348.719 419.375 348.459L414.297 334.787H416.641L418.301 338.986V337.716ZM419.766 342.795L420.84 340.06H418.691L419.766 342.795ZM429.531 340.06C429.531 336.545 431.289 334.787 434.805 334.787H441.836V337.13H434.805C432.852 337.13 431.875 338.107 431.875 340.06V346.505C431.875 348.459 432.852 349.435 434.805 349.435H441.836V351.779H434.805C431.289 351.779 429.531 350.021 429.531 346.505V340.06ZM432.461 342.99V340.06C432.461 338.498 433.242 337.716 434.805 337.716H441.836V340.06H435.391C435 340.06 434.805 340.255 434.805 340.646H440.078V342.99H432.461ZM432.461 343.576H440.078V345.92H434.805C434.805 346.31 435 346.505 435.391 346.505H441.836V348.849H434.805C433.242 348.849 432.461 348.068 432.461 346.505V343.576ZM456.484 340.353C456.484 341.89 456.087 343.055 455.293 343.849C454.512 344.63 453.848 345.158 453.301 345.431L456.484 351.779H454.141L450.039 343.576H451.211C451.901 343.576 452.559 343.263 453.184 342.638C453.822 342 454.141 341.239 454.141 340.353C454.141 339.481 453.822 338.726 453.184 338.088C452.559 337.45 451.901 337.13 451.211 337.13H443.008V334.787H451.211C452.552 334.787 453.763 335.334 454.844 336.427C455.938 337.521 456.484 338.83 456.484 340.353ZM453.555 340.353C453.555 341.082 453.294 341.707 452.773 342.228C452.266 342.736 451.745 342.99 451.211 342.99H445.352V351.779H443.008V340.646H450.625C451.016 340.646 451.211 340.548 451.211 340.353C451.211 340.158 451.016 340.06 450.625 340.06H443.008V337.716H451.211C451.745 337.716 452.266 337.977 452.773 338.498C453.294 339.019 453.555 339.637 453.555 340.353ZM453.555 351.779H451.211L448.281 345.92V351.779H445.938V343.576H449.453L453.555 351.779ZM457.656 340.353C457.656 338.83 458.197 337.521 459.277 336.427C460.371 335.334 461.589 334.787 462.93 334.787H470.547V337.13H463.516C462.435 337.13 461.576 337.45 460.938 338.088C460.312 338.726 460 339.481 460 340.353C460 341.239 460.312 342 460.938 342.638C461.576 343.263 462.435 343.576 463.516 343.576H464.688C465.612 343.576 466.328 343.836 466.836 344.357C467.357 344.865 467.617 345.483 467.617 346.213C467.617 346.929 467.357 347.547 466.836 348.068C466.328 348.589 465.612 348.849 464.688 348.849H457.656V346.505H464.688C465.078 346.505 465.273 346.408 465.273 346.213C465.273 346.017 465.078 345.92 464.688 345.92H462.93C461.589 345.92 460.371 345.379 459.277 344.298C458.197 343.205 457.656 341.89 457.656 340.353ZM460.586 340.353C460.586 339.637 460.84 339.019 461.348 338.498C461.868 337.977 462.591 337.716 463.516 337.716H470.547V340.06H463.516C463.125 340.06 462.93 340.158 462.93 340.353C462.93 340.548 463.125 340.646 463.516 340.646H465.273C466.615 340.646 467.826 341.193 468.906 342.287C470 343.367 470.547 344.676 470.547 346.213C470.547 347.736 470 349.045 468.906 350.138C467.826 351.232 466.615 351.779 465.273 351.779H457.656V349.435H464.688C465.768 349.435 466.621 349.116 467.246 348.478C467.884 347.84 468.203 347.085 468.203 346.213C468.203 345.327 467.884 344.572 467.246 343.947C466.621 343.309 465.768 342.99 464.688 342.99H463.516C462.591 342.99 461.868 342.736 461.348 342.228C460.84 341.707 460.586 341.082 460.586 340.353ZM471.719 340.06C471.719 336.545 473.477 334.787 476.992 334.787H484.023V337.13H476.992C475.039 337.13 474.062 338.107 474.062 340.06V346.505C474.062 348.459 475.039 349.435 476.992 349.435H484.023V351.779H476.992C473.477 351.779 471.719 350.021 471.719 346.505V340.06ZM474.648 342.99V340.06C474.648 338.498 475.43 337.716 476.992 337.716H484.023V340.06H477.578C477.188 340.06 476.992 340.255 476.992 340.646H482.266V342.99H474.648ZM474.648 343.576H482.266V345.92H476.992C476.992 346.31 477.188 346.505 477.578 346.505H484.023V348.849H476.992C475.43 348.849 474.648 348.068 474.648 346.505V343.576Z" fill="#E62222"/>
<path d="M330.587 431.712V436M330.587 440.288H330.597M339.163 437.072C339.163 442.432 335.411 445.113 330.951 446.667C330.718 446.746 330.464 446.742 330.233 446.656C325.763 445.113 322.01 442.432 322.01 437.072V429.568C322.01 429.284 322.123 429.011 322.324 428.81C322.525 428.609 322.798 428.496 323.082 428.496C325.227 428.496 327.907 427.209 329.772 425.58C329.999 425.386 330.288 425.279 330.587 425.279C330.886 425.279 331.174 425.386 331.402 425.58C333.278 427.22 335.947 428.496 338.091 428.496C338.375 428.496 338.648 428.609 338.849 428.81C339.05 429.011 339.163 429.284 339.163 429.568V437.072ZM332.017 411.384L351.171 422.453C352.055 422.964 352.6 423.907 352.6 424.928V447.072C352.6 448.093 352.055 449.036 351.171 449.547L332.017 460.617C331.132 461.128 330.041 461.128 329.156 460.617L310.002 449.547C309.119 449.036 308.574 448.093 308.574 447.072V424.928C308.574 423.907 309.119 422.964 310.002 422.453L329.156 411.384C330.041 410.872 331.132 410.872 332.017 411.384Z" stroke="#E62222" stroke-width="2" stroke-linecap="round" stroke-linejoin="round"/>
<path d="M317.477 490.32C317.477 491.856 316.93 493.171 315.836 494.265C314.755 495.346 313.544 495.886 312.203 495.886H309.859V493.542H312.203C312.893 493.542 313.551 493.23 314.176 492.605C314.814 491.967 315.133 491.205 315.133 490.32C315.133 489.447 314.814 488.692 314.176 488.054C313.551 487.416 312.893 487.097 312.203 487.097H306.344V501.745H304V484.753H312.203C313.544 484.753 314.755 485.3 315.836 486.394C316.93 487.488 317.477 488.796 317.477 490.32ZM314.547 490.32C314.547 491.049 314.286 491.674 313.766 492.195C313.258 492.702 312.737 492.956 312.203 492.956H309.859V490.613H311.617C312.008 490.613 312.203 490.515 312.203 490.32C312.203 490.124 312.008 490.027 311.617 490.027H309.273V501.745H306.93V487.683H312.203C312.737 487.683 313.258 487.943 313.766 488.464C314.286 488.985 314.547 489.603 314.547 490.32ZM323.922 501.745C320.406 501.745 318.648 499.988 318.648 496.472V484.753H320.992V496.472C320.992 498.425 321.969 499.402 323.922 499.402H330.367C332.32 499.402 333.297 498.425 333.297 496.472V484.753H335.641V496.472C335.641 499.988 333.883 501.745 330.367 501.745H323.922ZM326.852 498.816H323.922C322.359 498.816 321.578 498.034 321.578 496.472V484.753H323.922V495.886C323.922 496.277 324.117 496.472 324.508 496.472V487.683H326.852V498.816ZM327.438 487.683H329.781V496.472C330.172 496.472 330.367 496.277 330.367 495.886V484.753H332.711V496.472C332.711 498.034 331.93 498.816 330.367 498.816H327.438V487.683ZM336.812 501.745V487.683C336.812 485.73 337.789 484.753 339.742 484.753C340.914 484.753 341.695 484.988 342.086 485.456L346.383 490.73C346.643 491.042 346.773 491.003 346.773 490.613V484.753H349.117V497.136C349.169 498.073 349.039 498.308 348.727 497.839L340.367 487.683C340.055 487.292 339.762 487.097 339.488 487.097C339.215 487.097 339.104 487.488 339.156 488.269V501.745H336.812ZM352.047 484.753V498.816C352.047 500.769 351.07 501.745 349.117 501.745C347.945 501.745 347.164 501.511 346.773 501.042L342.477 495.769C342.216 495.456 342.086 495.495 342.086 495.886V501.745H339.742V489.363C339.69 488.425 339.82 488.191 340.133 488.659L348.492 498.816C348.805 499.206 349.098 499.402 349.371 499.402C349.645 499.402 349.755 499.011 349.703 498.23V484.753H352.047Z" fill="#E62222"/>
<path d="M136.798 446.928L138.942 444.784L136.798 442.64M141.087 449.072H145.375M134.654 438.352H149.663C150.847 438.352 151.807 439.312 151.807 440.496V455.505C151.807 456.689 150.847 457.649 149.663 457.649H134.654C133.47 457.649 132.51 456.689 132.51 455.505V440.496C132.51 439.312 133.47 438.352 134.654 438.352ZM143.589 423.384L162.743 434.453C163.627 434.964 164.171 435.907 164.171 436.928V459.072C164.171 460.093 163.627 461.036 162.743 461.547L143.589 472.617C142.704 473.128 141.613 473.128 140.728 472.617L121.574 461.547C120.69 461.036 120.146 460.093 120.146 459.072V436.928C120.146 435.907 120.69 434.964 121.574 434.453L140.728 423.384C141.613 422.872 142.704 422.872 143.589 423.384Z" stroke="#E62222" stroke-width="2" stroke-linecap="round" stroke-linejoin="round"/>
<path d="M115 509.743V492.751H118.516C119.818 492.751 120.794 493.337 121.445 494.509L122.617 496.852L123.789 494.509C124.44 493.337 125.417 492.751 126.719 492.751H130.234V509.743H127.891V495.095H127.305C126.523 495.095 125.938 495.485 125.547 496.266L122.617 502.712L119.688 496.266C119.297 495.485 118.711 495.095 117.93 495.095H117.344V509.743H115ZM117.93 509.743V495.681C118.32 495.681 118.581 495.811 118.711 496.071L122.617 504.47L126.523 496.071C126.654 495.811 126.914 495.681 127.305 495.681V509.743H124.961V504.47L122.617 509.743L120.273 504.47V509.743H117.93ZM131.406 509.743V492.751H133.75V509.743H131.406ZM134.336 509.743V492.751H136.68V509.743H134.336ZM137.852 498.317C137.852 496.794 138.392 495.485 139.473 494.391C140.566 493.298 141.784 492.751 143.125 492.751H150.742V495.095H143.711C142.63 495.095 141.771 495.414 141.133 496.052C140.508 496.69 140.195 497.445 140.195 498.317C140.195 499.203 140.508 499.964 141.133 500.602C141.771 501.227 142.63 501.54 143.711 501.54H144.883C145.807 501.54 146.523 501.8 147.031 502.321C147.552 502.829 147.812 503.447 147.812 504.177C147.812 504.893 147.552 505.511 147.031 506.032C146.523 506.553 145.807 506.813 144.883 506.813H137.852V504.47H144.883C145.273 504.47 145.469 504.372 145.469 504.177C145.469 503.981 145.273 503.884 144.883 503.884H143.125C141.784 503.884 140.566 503.343 139.473 502.263C138.392 501.169 137.852 499.854 137.852 498.317ZM140.781 498.317C140.781 497.601 141.035 496.983 141.543 496.462C142.064 495.941 142.786 495.681 143.711 495.681H150.742V498.024H143.711C143.32 498.024 143.125 498.122 143.125 498.317C143.125 498.513 143.32 498.61 143.711 498.61H145.469C146.81 498.61 148.021 499.157 149.102 500.251C150.195 501.332 150.742 502.64 150.742 504.177C150.742 505.7 150.195 507.009 149.102 508.102C148.021 509.196 146.81 509.743 145.469 509.743H137.852V507.399H144.883C145.964 507.399 146.816 507.08 147.441 506.442C148.079 505.804 148.398 505.049 148.398 504.177C148.398 503.291 148.079 502.536 147.441 501.911C146.816 501.273 145.964 500.954 144.883 500.954H143.711C142.786 500.954 142.064 500.7 141.543 500.192C141.035 499.671 140.781 499.046 140.781 498.317ZM151.914 498.024C151.914 494.509 153.672 492.751 157.188 492.751H164.219V495.095H157.188C155.234 495.095 154.258 496.071 154.258 498.024V504.47C154.258 506.423 155.234 507.399 157.188 507.399H164.219V509.743H157.188C153.672 509.743 151.914 507.985 151.914 504.47V498.024ZM154.844 498.024C154.844 496.462 155.625 495.681 157.188 495.681H164.219V498.024H157.773C157.383 498.024 157.188 498.22 157.188 498.61V503.884C157.188 504.274 157.383 504.47 157.773 504.47H164.219V506.813H157.188C155.625 506.813 154.844 506.032 154.844 504.47V498.024Z" fill="#E62222"/>
<path d="M414.81 100.928V96.64C414.81 95.2183 415.375 93.8549 416.38 92.8497C417.385 91.8445 418.749 91.2797 420.17 91.2797C421.592 91.2797 422.955 91.8445 423.96 92.8497C424.966 93.8549 425.53 95.2183 425.53 96.64V100.928M412.666 100.928H427.674C428.859 100.928 429.819 101.888 429.819 103.072V110.577C429.819 111.761 428.859 112.721 427.674 112.721H412.666C411.482 112.721 410.522 111.761 410.522 110.577V103.072C410.522 101.888 411.482 100.928 412.666 100.928ZM421.601 77.3836L440.755 88.4531C441.638 88.9639 442.183 89.9074 442.183 90.9283V113.072C442.183 114.093 441.638 115.036 440.755 115.547L421.601 126.617C420.716 127.128 419.625 127.128 418.74 126.617L399.586 115.547C398.702 115.036 398.157 114.093 398.157 113.072V90.9283C398.157 89.9074 398.702 88.9639 399.586 88.4531L418.74 77.3836C419.625 76.8721 420.716 76.8721 421.601 77.3836Z" stroke="#E62222" stroke-width="2" stroke-linecap="round" stroke-linejoin="round"/>
<path d="M373 153.281C373 149.766 374.758 148.008 378.273 148.008H385.305V150.352H378.273C376.32 150.352 375.344 151.328 375.344 153.281V159.727C375.344 161.68 376.32 162.656 378.273 162.656H385.305V165H378.273C374.758 165 373 163.242 373 159.727V153.281ZM375.93 153.281C375.93 151.719 376.711 150.938 378.273 150.938H385.305V153.281H378.859C378.469 153.281 378.273 153.477 378.273 153.867V159.141C378.273 159.531 378.469 159.727 378.859 159.727H385.305V162.07H378.273C376.711 162.07 375.93 161.289 375.93 159.727V153.281ZM399.953 153.574C399.953 155.111 399.556 156.276 398.762 157.07C397.98 157.852 397.316 158.379 396.77 158.652L399.953 165H397.609L393.508 156.797H394.68C395.37 156.797 396.027 156.484 396.652 155.859C397.29 155.221 397.609 154.46 397.609 153.574C397.609 152.702 397.29 151.947 396.652 151.309C396.027 150.671 395.37 150.352 394.68 150.352H386.477V148.008H394.68C396.021 148.008 397.232 148.555 398.312 149.648C399.406 150.742 399.953 152.051 399.953 153.574ZM397.023 153.574C397.023 154.303 396.763 154.928 396.242 155.449C395.734 155.957 395.214 156.211 394.68 156.211H388.82V165H386.477V153.867H394.094C394.484 153.867 394.68 153.77 394.68 153.574C394.68 153.379 394.484 153.281 394.094 153.281H386.477V150.938H394.68C395.214 150.938 395.734 151.198 396.242 151.719C396.763 152.24 397.023 152.858 397.023 153.574ZM397.023 165H394.68L391.75 159.141V165H389.406V156.797H392.922L397.023 165ZM408.156 165H405.812V156.504L401.125 148.008H403.469L408.156 156.504V165ZM404.055 148.008H406.398L408.449 151.719L410.5 148.008H412.844L409.621 153.848L409.914 154.375L413.43 148.008H415.773L411.086 156.504V165H408.742L408.762 156.523L404.055 148.008ZM430.422 153.574C430.422 155.111 429.875 156.426 428.781 157.52C427.701 158.6 426.49 159.141 425.148 159.141H422.805V156.797H425.148C425.839 156.797 426.496 156.484 427.121 155.859C427.759 155.221 428.078 154.46 428.078 153.574C428.078 152.702 427.759 151.947 427.121 151.309C426.496 150.671 425.839 150.352 425.148 150.352H419.289V165H416.945V148.008H425.148C426.49 148.008 427.701 148.555 428.781 149.648C429.875 150.742 430.422 152.051 430.422 153.574ZM427.492 153.574C427.492 154.303 427.232 154.928 426.711 155.449C426.203 155.957 425.682 156.211 425.148 156.211H422.805V153.867H424.562C424.953 153.867 425.148 153.77 425.148 153.574C425.148 153.379 424.953 153.281 424.562 153.281H422.219V165H419.875V150.938H425.148C425.682 150.938 426.203 151.198 426.711 151.719C427.232 152.24 427.492 152.858 427.492 153.574ZM431.594 148.008H445.07V150.352H431.594V148.008ZM431.594 150.938H438.039V165H435.695V153.281H431.594V150.938ZM438.625 165V150.938H445.07V153.281H440.969V165H438.625ZM459.133 153.281V159.727C459.133 163.242 457.375 165 453.859 165H451.516C448 165 446.242 163.242 446.242 159.727V153.281C446.242 149.766 448 148.008 451.516 148.008H453.859C457.375 148.008 459.133 149.766 459.133 153.281ZM456.203 153.281V159.727C456.203 161.289 455.422 162.07 453.859 162.07H451.516C449.953 162.07 449.172 161.289 449.172 159.727V153.281C449.172 151.719 449.953 150.938 451.516 150.938H453.859C455.422 150.938 456.203 151.719 456.203 153.281ZM456.789 153.281C456.789 151.328 455.812 150.352 453.859 150.352H451.516C449.562 150.352 448.586 151.328 448.586 153.281V159.727C448.586 161.68 449.562 162.656 451.516 162.656H453.859C455.812 162.656 456.789 161.68 456.789 159.727V153.281ZM453.859 153.867C453.859 153.477 453.664 153.281 453.273 153.281H452.102C451.711 153.281 451.516 153.477 451.516 153.867V159.141C451.516 159.531 451.711 159.727 452.102 159.727H453.273C453.664 159.727 453.859 159.531 453.859 159.141V153.867Z" fill="#E62222"/>
<path d="M230 139.5L150 197.5L163.5 277.5L194 338.5L271 347L339.5 287L353.5 164L230 139.5Z" fill="#E62222" fill-opacity="0.5" stroke="#E62222" stroke-width="2"/>
<path d="M285.574 147.386L285.756 147.531L285.983 147.582L354.645 162.948L354.347 233.308L354.346 233.541L354.448 233.75L385.245 297.013L330.049 340.648L329.866 340.793L329.766 341.003L299.507 404.525L230.977 388.577L230.751 388.524L230.524 388.577L161.994 404.525L131.735 341.003L131.635 340.793L131.452 340.648L76.2565 297.013L107.053 233.75L107.155 233.541L107.154 233.308L106.856 162.948L175.518 147.582L175.746 147.531L175.927 147.386L230.751 103.283L285.574 147.386Z" stroke="#E30613" stroke-width="2"/>
<path d="M274.109 171.962L274.29 172.107L274.517 172.158L328.507 184.24L328.273 239.566L328.272 239.798L328.374 240.008L352.59 289.752L309.188 324.063L309.006 324.208L308.906 324.418L285.112 374.366L231.227 361.826L231 361.773L230.773 361.826L176.887 374.366L153.094 324.418L152.994 324.208L152.812 324.063L109.41 289.752L133.626 240.008L133.728 239.798L133.727 239.566L133.493 184.24L187.483 172.158L187.71 172.107L187.891 171.962L231 137.283L274.109 171.962Z" stroke="#E30613" stroke-width="2"/>
<path d="M263.149 193.472L263.331 193.617L263.558 193.668L304.33 202.793L304.153 244.573L304.152 244.806L304.254 245.015L322.541 282.581L289.765 308.492L289.583 308.636L289.483 308.846L271.515 346.566L230.821 337.096L230.595 337.043L230.368 337.096L189.674 346.566L171.706 308.846L171.606 308.636L171.424 308.492L138.648 282.581L156.935 245.015L157.037 244.806L157.036 244.573L156.859 202.793L197.631 193.668L197.858 193.617L198.04 193.472L230.595 167.283L263.149 193.472Z" stroke="#E30613" stroke-width="2"/>
<path d="M255.365 210.883L255.546 211.029L255.773 211.08L286.288 217.909L286.156 249.179L286.155 249.411L286.257 249.62L299.944 277.736L275.413 297.129L275.231 297.273L275.131 297.483L261.683 325.713L231.227 318.626L231 318.573L230.773 318.626L200.317 325.713L186.869 297.483L186.769 297.273L186.587 297.129L162.056 277.736L175.743 249.62L175.845 249.411L175.844 249.179L175.712 217.909L206.227 211.08L206.454 211.029L206.635 210.883L231 191.283L255.365 210.883Z" stroke="#E30613" stroke-width="2"/>
<path d="M232.742 257.118L232.925 257.261L233.153 257.308L236.073 257.915L236.106 260.897L236.108 261.13L236.213 261.337L237.559 263.998L235.249 265.883L235.068 266.03L234.971 266.242L233.73 268.953L230.816 268.322L230.588 268.273L230.362 268.329L227.469 269.049L226.145 266.377L226.042 266.168L225.857 266.027L223.49 264.213L224.754 261.512L224.852 261.301L224.848 261.069L224.79 258.087L227.69 257.392L227.916 257.337L228.095 257.189L230.39 255.284L232.742 257.118Z" fill="#E30613" stroke="#E30613" stroke-width="2"/>
<line x1="384.784" y1="296.976" x2="230.784" y2="262.976" stroke="#E30613" stroke-width="2"/>
<line x1="354.62" y1="163.785" x2="230.62" y2="261.785" stroke="#E30613" stroke-width="2"/>
<line x1="231" y1="104.006" x2="230" y2="265.006" stroke="#E30613" stroke-width="2"/>
<line x1="107.628" y1="163.222" x2="231.628" y2="263.222" stroke="#E30613" stroke-width="2"/>
<line x1="75.7871" y1="296.023" x2="231.787" y2="262.023" stroke="#E30613" stroke-width="2"/>
<line x1="162.099" y1="404.566" x2="230.099" y2="263.566" stroke="#E30613" stroke-width="2"/>
<line x1="299.097" y1="404.429" x2="232.097" y2="263.429" stroke="#E30613" stroke-width="2"/>
<path d="M33.7143 315C33.7143 320.921 28.9173 325.72 23 325.72M33.7143 315C33.7143 309.079 28.9173 304.28 23 304.28M33.7143 315H12.2857M23 325.72C17.0827 325.72 12.2857 320.921 12.2857 315M23 325.72C20.2488 322.83 18.7143 318.991 18.7143 315C18.7143 311.009 20.2488 307.17 23 304.28M23 325.72C25.7512 322.83 27.2857 318.991 27.2857 315C27.2857 311.009 25.7512 307.17 23 304.28M12.2857 315C12.2857 309.079 17.0827 304.28 23 304.28M24.4296 290.384L43.5725 301.453C44.4559 301.964 45 302.907 45 303.928V326.072C45 327.093 44.4559 328.036 43.5725 328.547L24.4296 339.616C23.5451 340.128 22.4549 340.128 21.5704 339.616L2.42751 328.547C1.5441 328.036 1 327.093 1 326.072V303.928C1 302.907 1.54411 301.964 2.42751 301.453L21.5704 290.384C22.4549 289.872 23.5451 289.872 24.4296 290.384Z" stroke="#E62222" stroke-width="2" stroke-linejoin="round"/>
<path d="M6.27344 373C2.75781 373 1 371.242 1 367.727V356.008H3.34375V367.727C3.34375 369.68 4.32031 370.656 6.27344 370.656H12.7188C14.6719 370.656 15.6484 369.68 15.6484 367.727V356.008H17.9922V367.727C17.9922 371.242 16.2344 373 12.7188 373H6.27344ZM9.20312 370.07H6.27344C4.71094 370.07 3.92969 369.289 3.92969 367.727V356.008H6.27344V367.141C6.27344 367.531 6.46875 367.727 6.85938 367.727V358.938H9.20312V370.07ZM9.78906 358.938H12.1328V367.727C12.5234 367.727 12.7188 367.531 12.7188 367.141V356.008H15.0625V367.727C15.0625 369.289 14.2812 370.07 12.7188 370.07H9.78906V358.938ZM18.9641 361.281C18.9641 357.766 20.7219 356.008 24.2375 356.008H31.2687V358.352H24.2375C22.2844 358.352 21.3078 359.328 21.3078 361.281V367.727C21.3078 369.68 22.2844 370.656 24.2375 370.656H31.2687V373H24.2375C20.7219 373 18.9641 371.242 18.9641 367.727V361.281ZM21.8937 364.211V361.281C21.8937 359.719 22.675 358.938 24.2375 358.938H31.2687V361.281H24.8234C24.4328 361.281 24.2375 361.477 24.2375 361.867H29.5109V364.211H21.8937ZM21.8937 364.797H29.5109V367.141H24.2375C24.2375 367.531 24.4328 367.727 24.8234 367.727H31.2687V370.07H24.2375C22.675 370.07 21.8937 369.289 21.8937 367.727V364.797ZM32.2406 356.125H38.5688C40.5089 356.125 42.0974 357.323 43.3344 359.719C43.5427 360.448 43.6469 361.125 43.6469 361.75C43.6469 362.727 43.3865 363.664 42.8656 364.562C43.3865 365.474 43.6469 366.464 43.6469 367.531C43.6469 369.914 42.3448 371.685 39.7406 372.844L38.5688 373H32.2406V370.656H38.1C39.6625 370.656 40.7042 369.771 41.225 368V367.219C41.225 366.151 40.6781 365.292 39.5844 364.641C40.6781 363.833 41.225 362.948 41.225 361.984V361.438C41.225 360.227 40.5219 359.289 39.1156 358.625C38.8813 358.521 38.5427 358.469 38.1 358.469H32.2406V356.125ZM32.2406 359.016H38.1C39.4151 359.016 40.2745 359.771 40.6781 361.281V361.984C40.6781 362.883 40.1052 363.612 38.9594 364.172C38.751 364.276 38.4646 364.328 38.1 364.328H32.2406V362.609V361.672V360.734V359.016ZM32.2406 364.875H38.4906C39.4151 364.875 40.1443 365.578 40.6781 366.984V367.609C40.6781 368.781 40.001 369.615 38.6469 370.109H32.2406V368.547V367.531V366.438V364.875ZM34.6625 367.219V367.766H37.7094C38.1 367.766 38.3083 367.688 38.3344 367.531V367.453C38.3083 367.297 38.1 367.219 37.7094 367.219H34.6625ZM34.6625 361.359V361.906H37.7094C38.1 361.906 38.3083 361.828 38.3344 361.672V361.594C38.3083 361.438 38.1 361.359 37.7094 361.359H34.6625Z" fill="#E62222"/>
<path d="M57.2276 89.7197L76.7506 101C77.369 101.357 77.75 102.017 77.75 102.731V124.769C77.75 125.483 77.369 126.143 76.7506 126.5L57.2342 137.776C56.621 138.131 55.8661 138.134 55.2495 137.786L35.2659 126.491C34.6381 126.136 34.25 125.471 34.25 124.75V102.642C34.25 101.918 34.6411 101.251 35.2726 100.897L55.2496 89.7066C55.8651 89.3618 56.6167 89.3668 57.2276 89.7197Z" stroke="#E62222" stroke-width="2"/>
<g clip-path="url(#clip0_1939_163)">
<path d="M42.5416 114.5C42.5416 114.5 47.7083 104.167 56.75 104.167C65.7916 104.167 70.9583 114.5 70.9583 114.5C70.9583 114.5 65.7916 124.833 56.75 124.833C47.7083 124.833 42.5416 114.5 42.5416 114.5Z" stroke="#E62222" stroke-width="2" stroke-linecap="round" stroke-linejoin="round"/>
<path d="M56.75 118.375C58.8901 118.375 60.625 116.64 60.625 114.5C60.625 112.36 58.8901 110.625 56.75 110.625C54.6099 110.625 52.875 112.36 52.875 114.5C52.875 116.64 54.6099 118.375 56.75 118.375Z" stroke="#E62222" stroke-width="2" stroke-linecap="round" stroke-linejoin="round"/>
</g>
<path d="M35.8906 162.781V169.227C35.8906 172.742 34.1328 174.5 30.6172 174.5H28.2734C24.7578 174.5 23 172.742 23 169.227V162.781C23 159.266 24.7578 157.508 28.2734 157.508H30.6172C34.1328 157.508 35.8906 159.266 35.8906 162.781ZM32.9609 162.781V169.227C32.9609 170.789 32.1797 171.57 30.6172 171.57H28.2734C26.7109 171.57 25.9297 170.789 25.9297 169.227V162.781C25.9297 161.219 26.7109 160.438 28.2734 160.438H30.6172C32.1797 160.438 32.9609 161.219 32.9609 162.781ZM33.5469 162.781C33.5469 160.828 32.5703 159.852 30.6172 159.852H28.2734C26.3203 159.852 25.3438 160.828 25.3438 162.781V169.227C25.3438 171.18 26.3203 172.156 28.2734 172.156H30.6172C32.5703 172.156 33.5469 171.18 33.5469 169.227V162.781ZM30.6172 163.367C30.6172 162.977 30.4219 162.781 30.0312 162.781H28.8594C28.4688 162.781 28.2734 162.977 28.2734 163.367V168.641C28.2734 169.031 28.4688 169.227 28.8594 169.227H30.0312C30.4219 169.227 30.6172 169.031 30.6172 168.641V163.367ZM37.0625 163.074C37.0625 161.551 37.6029 160.242 38.6836 159.148C39.7773 158.055 40.9948 157.508 42.3359 157.508H49.9531V159.852H42.9219C41.8411 159.852 40.9818 160.171 40.3438 160.809C39.7188 161.447 39.4062 162.202 39.4062 163.074C39.4062 163.96 39.7188 164.721 40.3438 165.359C40.9818 165.984 41.8411 166.297 42.9219 166.297H44.0938C45.0182 166.297 45.7344 166.557 46.2422 167.078C46.763 167.586 47.0234 168.204 47.0234 168.934C47.0234 169.65 46.763 170.268 46.2422 170.789C45.7344 171.31 45.0182 171.57 44.0938 171.57H37.0625V169.227H44.0938C44.4844 169.227 44.6797 169.129 44.6797 168.934C44.6797 168.738 44.4844 168.641 44.0938 168.641H42.3359C40.9948 168.641 39.7773 168.1 38.6836 167.02C37.6029 165.926 37.0625 164.611 37.0625 163.074ZM39.9922 163.074C39.9922 162.358 40.2461 161.74 40.7539 161.219C41.2747 160.698 41.9974 160.438 42.9219 160.438H49.9531V162.781H42.9219C42.5312 162.781 42.3359 162.879 42.3359 163.074C42.3359 163.27 42.5312 163.367 42.9219 163.367H44.6797C46.0208 163.367 47.2318 163.914 48.3125 165.008C49.4062 166.089 49.9531 167.397 49.9531 168.934C49.9531 170.457 49.4062 171.766 48.3125 172.859C47.2318 173.953 46.0208 174.5 44.6797 174.5H37.0625V172.156H44.0938C45.1745 172.156 46.0273 171.837 46.6523 171.199C47.2904 170.561 47.6094 169.806 47.6094 168.934C47.6094 168.048 47.2904 167.293 46.6523 166.668C46.0273 166.03 45.1745 165.711 44.0938 165.711H42.9219C41.9974 165.711 41.2747 165.457 40.7539 164.949C40.2461 164.428 39.9922 163.803 39.9922 163.074ZM51.125 174.5V157.508H53.4688V174.5H51.125ZM54.0547 174.5V157.508H56.3984V174.5H54.0547ZM57.5703 174.5V160.438C57.5703 158.484 58.5469 157.508 60.5 157.508C61.6719 157.508 62.4531 157.742 62.8438 158.211L67.1406 163.484C67.401 163.797 67.5312 163.758 67.5312 163.367V157.508H69.875V169.891C69.9271 170.828 69.7969 171.062 69.4844 170.594L61.125 160.438C60.8125 160.047 60.5195 159.852 60.2461 159.852C59.9727 159.852 59.862 160.242 59.9141 161.023V174.5H57.5703ZM72.8047 157.508V171.57C72.8047 173.523 71.8281 174.5 69.875 174.5C68.7031 174.5 67.9219 174.266 67.5312 173.797L63.2344 168.523C62.974 168.211 62.8438 168.25 62.8438 168.641V174.5H60.5V162.117C60.4479 161.18 60.5781 160.945 60.8906 161.414L69.25 171.57C69.5625 171.961 69.8555 172.156 70.1289 172.156C70.4023 172.156 70.513 171.766 70.4609 170.984V157.508H72.8047ZM73.9766 157.508H87.4531V159.852H73.9766V157.508ZM73.9766 160.438H80.4219V174.5H78.0781V162.781H73.9766V160.438ZM81.0078 174.5V160.438H87.4531V162.781H83.3516V174.5H81.0078Z" fill="#E62222"/>
<defs>
<clipPath id="clip0_1939_163">
<rect width="31" height="31" fill="white" transform="translate(41.25 99)"/>
</clipPath>
</defs>
</svg>
