<svg width="441" height="510" viewBox="0 0 441 510" fill="none" xmlns="http://www.w3.org/2000/svg">
<path d="M220 2L1 129M220 2L439.104 129M220 2V65.25M220 255V318.25M220 255L274.776 286.625M220 255V191.75M1 129V381.5M1 129L55.7761 160.625M220.104 255.5L165.328 223.875M439.104 381.5V129M439.104 381.5L220 508M439.104 381.5L384.328 349.875M1 381.5L220 508M1 381.5L55.7761 349.875M220.104 255L165.328 286.625M439.104 129L384.328 160.625M220 255.5L274.776 223.875M220 508V444.75M110.552 192.25V318.25M110.552 192.25L220 128.5M110.552 192.25L165.328 223.875M110.552 192.25L55.7761 160.625M110.552 318.25L220 381.5M110.552 318.25L165.328 286.625M110.552 318.25L55.7761 349.875M220 128.5L329.552 192.25M220 128.5V191.75M220 128.5V65.25M329.552 192.25L329.552 318.25M329.552 192.25L274.776 223.875M329.552 192.25L384.328 160.625M329.552 318.25L220 381.5M329.552 318.25L274.776 286.625M329.552 318.25L384.328 349.875M220 381.5V318.25M220 381.5V444.75M165.328 223.875V286.625M165.328 223.875L220 191.75M165.328 286.625L220 318.25M220 318.25L274.776 286.625M274.776 286.625L274.776 223.875M274.776 223.875L220 191.75M55.7761 160.625V349.875M55.7761 160.625L220 65.25M55.7761 349.875L220 444.75M220 444.75L384.328 349.875M384.328 349.875V160.625M384.328 160.625L220 65.25" stroke="#E62222" stroke-width="2"/>
<path d="M219.5 193L2 129.5L56 349L219.5 382.5L412 366.5L365 172L219.5 193Z" fill="#E62222" fill-opacity="0.5" stroke="#E62222" stroke-width="2"/>
</svg>
