<svg width="95" height="149" viewBox="0 0 95 149" fill="none" xmlns="http://www.w3.org/2000/svg">
<path d="M38.125 42.8501L41.875 39.1001L38.125 35.3501M45.625 46.6001H53.125M34.375 27.8501H60.625C62.6961 27.8501 64.375 29.529 64.375 31.6001V57.8501C64.375 59.9211 62.6961 61.6001 60.625 61.6001H34.375C32.3039 61.6001 30.625 59.9211 30.625 57.8501V31.6001C30.625 29.529 32.3039 27.8501 34.375 27.8501ZM50.0019 1.67095L83.5019 21.0313C85.0478 21.9248 86 23.5748 86 25.3604V64.0897C86 65.8753 85.0478 67.5254 83.5019 68.4188L50.0019 87.7792C48.4539 88.6738 46.5461 88.6738 44.9981 87.7792L11.4981 68.4188C9.95218 67.5254 9 65.8753 9 64.0897V25.3604C9 23.5748 9.95218 21.9248 11.4981 21.0313L44.9981 1.67094C46.5461 0.77635 48.4539 0.776353 50.0019 1.67095Z" stroke="#E62222" stroke-width="2" stroke-linecap="round" stroke-linejoin="round"/>
<path d="M0 131V98.6925H6.68431C9.15999 98.6925 11.0167 99.8065 12.2546 102.035L14.4827 106.491L16.7108 102.035C17.9486 99.8065 19.8054 98.6925 22.281 98.6925H28.9654V131H24.5092V103.149H23.3951C21.9097 103.149 20.7956 103.891 20.0529 105.377L14.4827 117.631L8.91242 105.377C8.16972 103.891 7.05566 103.149 5.57026 103.149H4.45621V131H0ZM5.57026 131V104.263C6.31296 104.263 6.8081 104.51 7.05566 105.005L14.4827 120.974L21.9097 105.005C22.1573 104.51 22.6524 104.263 23.3951 104.263V131H18.9389V120.974L14.4827 131L10.0265 120.974V131H5.57026ZM30.8132 131V98.6925H35.2694V131H30.8132ZM36.3835 131V98.6925H40.8397V131H36.3835ZM42.6875 109.276C42.6875 106.379 43.7149 103.891 45.7697 101.812C47.8493 99.7323 50.164 98.6925 52.714 98.6925H67.1967V103.149H53.828C51.7732 103.149 50.1393 103.755 48.9262 104.968C47.7379 106.181 47.1437 107.617 47.1437 109.276C47.1437 110.959 47.7379 112.408 48.9262 113.621C50.1393 114.809 51.7732 115.403 53.828 115.403H56.0561C57.8139 115.403 59.1755 115.898 60.141 116.889C61.1313 117.854 61.6264 119.03 61.6264 120.417C61.6264 121.778 61.1313 122.954 60.141 123.944C59.1755 124.935 57.8139 125.43 56.0561 125.43H42.6875V120.974H56.0561C56.7988 120.974 57.1702 120.788 57.1702 120.417C57.1702 120.045 56.7988 119.859 56.0561 119.859H52.714C50.164 119.859 47.8493 118.832 45.7697 116.777C43.7149 114.698 42.6875 112.197 42.6875 109.276ZM48.2578 109.276C48.2578 107.914 48.7405 106.738 49.706 105.748C50.6963 104.758 52.0703 104.263 53.828 104.263H67.1967V108.719H53.828C53.0853 108.719 52.714 108.905 52.714 109.276C52.714 109.647 53.0853 109.833 53.828 109.833H57.1702C59.7201 109.833 62.0225 110.873 64.0773 112.952C66.1569 115.007 67.1967 117.495 67.1967 120.417C67.1967 123.313 66.1569 125.801 64.0773 127.881C62.0225 129.96 59.7201 131 57.1702 131H42.6875V126.544H56.0561C58.1109 126.544 59.7325 125.937 60.9208 124.724C62.1339 123.511 62.7405 122.075 62.7405 120.417C62.7405 118.733 62.1339 117.297 60.9208 116.109C59.7325 114.896 58.1109 114.289 56.0561 114.289H53.828C52.0703 114.289 50.6963 113.806 49.706 112.841C48.7405 111.851 48.2578 110.662 48.2578 109.276ZM69.0445 108.719C69.0445 102.035 72.3867 98.6925 79.071 98.6925H92.4396V103.149H79.071C75.3575 103.149 73.5007 105.005 73.5007 108.719V120.974C73.5007 124.687 75.3575 126.544 79.071 126.544H92.4396V131H79.071C72.3867 131 69.0445 127.658 69.0445 120.974V108.719ZM74.6148 108.719C74.6148 105.748 76.1002 104.263 79.071 104.263H92.4396V108.719H80.185C79.4423 108.719 79.071 109.09 79.071 109.833V119.859C79.071 120.602 79.4423 120.974 80.185 120.974H92.4396V125.43H79.071C76.1002 125.43 74.6148 123.944 74.6148 120.974V108.719Z" fill="#E62222"/>
</svg>
