<svg width="87" height="87" viewBox="0 0 87 87" fill="none" xmlns="http://www.w3.org/2000/svg">
<path d="M47.4545 0L47.4585 12.1088C54.4273 12.9899 60.905 16.1639 65.8715 21.1312C70.838 26.0984 74.0111 32.5766 74.8912 39.5455H87V47.4545L74.8912 47.4585C74.0103 54.4267 70.8368 60.9039 65.8704 65.8704C60.9039 70.8368 54.4267 74.0103 47.4585 74.8912L47.4545 87H39.5455V74.8912C32.5766 74.0111 26.0984 70.838 21.1312 65.8715C16.1639 60.905 12.9899 54.4273 12.1088 47.4585L0 47.4545V39.5455H12.1088C12.989 32.576 16.1628 26.0974 21.1301 21.1301C26.0974 16.1628 32.576 12.989 39.5455 12.1088V0H47.4545ZM43.5 19.7727C37.2071 19.7727 31.172 22.2726 26.7223 26.7223C22.2726 31.172 19.7727 37.2071 19.7727 43.5C19.7727 49.7929 22.2726 55.828 26.7223 60.2777C31.172 64.7274 37.2071 67.2273 43.5 67.2273C49.7929 67.2273 55.828 64.7274 60.2777 60.2777C64.7274 55.828 67.2273 49.7929 67.2273 43.5C67.2273 37.2071 64.7274 31.172 60.2777 26.7223C55.828 22.2726 49.7929 19.7727 43.5 19.7727ZM43.5 35.5909C45.5976 35.5909 47.6093 36.4242 49.0926 37.9074C50.5758 39.3907 51.4091 41.4024 51.4091 43.5C51.4091 45.5976 50.5758 47.6093 49.0926 49.0926C47.6093 50.5758 45.5976 51.4091 43.5 51.4091C41.4024 51.4091 39.3907 50.5758 37.9074 49.0926C36.4242 47.6093 35.5909 45.5976 35.5909 43.5C35.5909 41.4024 36.4242 39.3907 37.9074 37.9074C39.3907 36.4242 41.4024 35.5909 43.5 35.5909Z" fill="#E30613"/>
</svg>
