<svg width="93" height="156" viewBox="0 0 93 156" fill="none" xmlns="http://www.w3.org/2000/svg">
<path d="M46.5 37.2251V44.7251M46.5 52.2251H46.5179M61.5 46.6C61.5 55.975 54.9375 60.6625 47.1375 63.3812C46.7291 63.5197 46.2854 63.513 45.8812 63.3625C38.0625 60.6625 31.5 55.975 31.5 46.6V33.475C31.5 32.9777 31.6975 32.5008 32.0492 32.1492C32.4008 31.7975 32.8777 31.6 33.375 31.6C37.125 31.6 41.8125 29.35 45.075 26.5C45.4722 26.1606 45.9775 25.9742 46.5 25.9742C47.0225 25.9742 47.5278 26.1606 47.925 26.5C51.2062 29.3687 55.875 31.6 59.625 31.6C60.1223 31.6 60.5992 31.7975 60.9508 32.1492C61.3025 32.5008 61.5 32.9777 61.5 33.475V46.6ZM49.0019 1.67095L82.5019 21.0313C84.0478 21.9248 85 23.5748 85 25.3604V64.0897C85 65.8753 84.0478 67.5254 82.5019 68.4188L49.0019 87.7792C47.4539 88.6738 45.5461 88.6738 43.9981 87.7792L10.4981 68.4188C8.95218 67.5254 8 65.8753 8 64.0897V25.3604C8 23.5748 8.95218 21.9248 10.4981 21.0313L43.9981 1.67094C45.5461 0.77635 47.4539 0.776353 49.0019 1.67095Z" stroke="#E62222" stroke-width="2" stroke-linecap="round" stroke-linejoin="round"/>
<path d="M25.6232 116.276C25.6232 119.197 24.5834 121.698 22.5039 123.777C20.449 125.832 18.1467 126.859 15.5967 126.859H11.1405V122.403H15.5967C16.9088 122.403 18.1591 121.809 19.3474 120.621C20.5605 119.408 21.167 117.959 21.167 116.276C21.167 114.617 20.5605 113.181 19.3474 111.968C18.1591 110.755 16.9088 110.149 15.5967 110.149H4.45621V138H0V105.692H15.5967C18.1467 105.692 20.449 106.732 22.5039 108.812C24.5834 110.891 25.6232 113.379 25.6232 116.276ZM20.0529 116.276C20.0529 117.662 19.5578 118.851 18.5675 119.841C17.602 120.806 16.6118 121.289 15.5967 121.289H11.1405V116.833H14.4827C15.2254 116.833 15.5967 116.647 15.5967 116.276C15.5967 115.905 15.2254 115.719 14.4827 115.719H10.0265V138H5.57026V111.263H15.5967C16.6118 111.263 17.602 111.758 18.5675 112.748C19.5578 113.738 20.0529 114.914 20.0529 116.276ZM37.4975 138C30.8132 138 27.471 134.658 27.471 127.974V105.692H31.9273V127.974C31.9273 131.687 33.784 133.544 37.4975 133.544H49.7521C53.4656 133.544 55.3224 131.687 55.3224 127.974V105.692H59.7786V127.974C59.7786 134.658 56.4364 138 49.7521 138H37.4975ZM43.0678 132.43H37.4975C34.5267 132.43 33.0413 130.944 33.0413 127.974V105.692H37.4975V126.859C37.4975 127.602 37.8689 127.974 38.6116 127.974V111.263H43.0678V132.43ZM44.1818 111.263H48.638V127.974C49.3807 127.974 49.7521 127.602 49.7521 126.859V105.692H54.2083V127.974C54.2083 130.944 52.7229 132.43 49.7521 132.43H44.1818V111.263ZM61.6264 138V111.263C61.6264 107.549 63.4832 105.692 67.1967 105.692C69.4248 105.692 70.9102 106.138 71.6529 107.029L79.8226 117.056C80.3177 117.65 80.5653 117.576 80.5653 116.833V105.692H85.0215V129.236C85.1205 131.019 84.873 131.464 84.2788 130.573L68.385 111.263C67.7908 110.52 67.2338 110.149 66.7139 110.149C66.194 110.149 65.9836 110.891 66.0826 112.377V138H61.6264ZM90.5918 105.692V132.43C90.5918 136.143 88.735 138 85.0215 138C82.7934 138 81.308 137.554 80.5653 136.663L72.3956 126.637C71.9004 126.043 71.6529 126.117 71.6529 126.859V138H67.1967V114.456C67.0976 112.674 67.3452 112.228 67.9394 113.119L83.8332 132.43C84.4273 133.172 84.9844 133.544 85.5043 133.544C86.0241 133.544 86.2346 132.801 86.1356 131.316V105.692H90.5918Z" fill="#E62222"/>
</svg>
