<svg width="189" height="150" viewBox="0 0 189 150" fill="none" xmlns="http://www.w3.org/2000/svg">
<path d="M92.0625 119.725H79.5C78.5054 119.725 77.5516 119.33 76.8483 118.627C76.1451 117.923 75.75 116.97 75.75 115.975V91.6001C75.75 90.6055 76.1451 89.6517 76.8483 88.9484C77.5516 88.2452 78.5054 87.8501 79.5 87.8501H86.8125C87.4397 87.8439 88.0583 87.9952 88.6119 88.29C89.1655 88.5848 89.6363 89.0137 89.9813 89.5376L91.5 91.7876C91.8415 92.3061 92.3063 92.7317 92.8528 93.0262C93.3993 93.3207 94.0104 93.475 94.6312 93.4751H109.5C110.495 93.4751 111.448 93.8702 112.152 94.5734C112.855 95.2767 113.25 96.2305 113.25 97.2251V104.913M111.375 121.6L108.562 118.788M109.5 114.1C109.5 117.207 106.982 119.725 103.875 119.725C100.768 119.725 98.25 117.207 98.25 114.1C98.25 110.993 100.768 108.475 103.875 108.475C106.982 108.475 109.5 110.993 109.5 114.1ZM97.0019 61.6709L130.502 81.0313C132.048 81.9248 133 83.5748 133 85.3604V124.09C133 125.875 132.048 127.525 130.502 128.419L97.0019 147.779C95.4539 148.674 93.5461 148.674 91.9981 147.779L58.4981 128.419C56.9522 127.525 56 125.875 56 124.09V85.3604C56 83.5748 56.9522 81.9248 58.4981 81.0313L91.9981 61.6709C93.5461 60.7764 95.4539 60.7764 97.0019 61.6709Z" stroke="#E62222" stroke-width="2" stroke-linecap="round" stroke-linejoin="round"/>
<path d="M25.6232 21.276C25.6232 24.1973 24.8681 26.413 23.358 27.9232C21.8726 29.4086 20.61 30.4112 19.5702 30.9311L25.6232 43H21.167L13.3686 27.4033H15.5967C16.9088 27.4033 18.1591 26.8091 19.3474 25.6208C20.5605 24.4077 21.167 22.9594 21.167 21.276C21.167 19.6173 20.5605 18.1814 19.3474 16.9683C18.1591 15.7552 16.9088 15.1487 15.5967 15.1487H0V10.6925H15.5967C18.1467 10.6925 20.449 11.7323 22.5039 13.8118C24.5834 15.8914 25.6232 18.3794 25.6232 21.276ZM20.0529 21.276C20.0529 22.6624 19.5578 23.8507 18.5675 24.8409C17.602 25.8065 16.6118 26.2892 15.5967 26.2892H4.45621V43H0V21.833H14.4827C15.2254 21.833 15.5967 21.6473 15.5967 21.276C15.5967 20.9046 15.2254 20.719 14.4827 20.719H0V16.2627H15.5967C16.6118 16.2627 17.602 16.7579 18.5675 17.7481C19.5578 18.7384 20.0529 19.9144 20.0529 21.276ZM20.0529 43H15.5967L10.0265 31.8595V43H5.57026V27.4033H12.2546L20.0529 43ZM27.471 20.719C27.471 14.0346 30.8132 10.6925 37.4975 10.6925H50.8661V15.1487H37.4975C33.784 15.1487 31.9273 17.0054 31.9273 20.719V32.9735C31.9273 36.687 33.784 38.5438 37.4975 38.5438H50.8661V43H37.4975C30.8132 43 27.471 39.6578 27.471 32.9735V20.719ZM33.0413 26.2892V20.719C33.0413 17.7481 34.5267 16.2627 37.4975 16.2627H50.8661V20.719H38.6116C37.8689 20.719 37.4975 21.0903 37.4975 21.833H47.524V26.2892H33.0413ZM33.0413 27.4033H47.524V31.8595H37.4975C37.4975 32.6022 37.8689 32.9735 38.6116 32.9735H50.8661V37.4297H37.4975C34.5267 37.4297 33.0413 35.9443 33.0413 32.9735V27.4033ZM62.5548 15.1487V10.6925H81.6793L70.9102 39.2865C70.0437 41.7622 68.1869 43 65.3399 43C62.8642 43 61.0075 41.7622 59.7696 39.2865L49.3718 10.6925H53.828L63.8545 37.8011C64.2259 38.2962 64.721 38.5438 65.3399 38.5438C66.0826 38.5438 66.5777 38.2962 66.8253 37.8011L75.7377 15.1487H62.5548ZM62.5548 16.2627H73.881L66.0826 36.687C65.9588 37.1822 65.7113 37.4297 65.3399 37.4297C64.9686 37.4297 64.721 37.1822 64.5972 36.687L54.9421 10.6925H59.3983L62.5548 18.6765V16.2627ZM65.3399 25.9179L67.3823 20.719H63.2975L65.3399 25.9179ZM83.5272 20.719C83.5272 14.0346 86.8693 10.6925 93.5537 10.6925H106.922V15.1487H93.5537C89.8401 15.1487 87.9834 17.0054 87.9834 20.719V32.9735C87.9834 36.687 89.8401 38.5438 93.5537 38.5438H106.922V43H93.5537C86.8693 43 83.5272 39.6578 83.5272 32.9735V20.719ZM89.0974 26.2892V20.719C89.0974 17.7481 90.5828 16.2627 93.5537 16.2627H106.922V20.719H94.6677C93.925 20.719 93.5537 21.0903 93.5537 21.833H103.58V26.2892H89.0974ZM89.0974 27.4033H103.58V31.8595H93.5537C93.5537 32.6022 93.925 32.9735 94.6677 32.9735H106.922V37.4297H93.5537C90.5828 37.4297 89.0974 35.9443 89.0974 32.9735V27.4033ZM134.393 21.276C134.393 24.1973 133.638 26.413 132.128 27.9232C130.643 29.4086 129.38 30.4112 128.34 30.9311L134.393 43H129.937L122.139 27.4033H124.367C125.679 27.4033 126.929 26.8091 128.117 25.6208C129.331 24.4077 129.937 22.9594 129.937 21.276C129.937 19.6173 129.331 18.1814 128.117 16.9683C126.929 15.7552 125.679 15.1487 124.367 15.1487H108.77V10.6925H124.367C126.917 10.6925 129.219 11.7323 131.274 13.8118C133.354 15.8914 134.393 18.3794 134.393 21.276ZM128.823 21.276C128.823 22.6624 128.328 23.8507 127.338 24.8409C126.372 25.8065 125.382 26.2892 124.367 26.2892H113.226V43H108.77V21.833H123.253C123.995 21.833 124.367 21.6473 124.367 21.276C124.367 20.9046 123.995 20.719 123.253 20.719H108.77V16.2627H124.367C125.382 16.2627 126.372 16.7579 127.338 17.7481C128.328 18.7384 128.823 19.9144 128.823 21.276ZM128.823 43H124.367L118.797 31.8595V43H114.34V27.4033H121.025L128.823 43ZM136.241 21.276C136.241 18.3794 137.269 15.8914 139.323 13.8118C141.403 11.7323 143.718 10.6925 146.268 10.6925H160.75V15.1487H147.382C145.327 15.1487 143.693 15.7552 142.48 16.9683C141.292 18.1814 140.697 19.6173 140.697 21.276C140.697 22.9594 141.292 24.4077 142.48 25.6208C143.693 26.8091 145.327 27.4033 147.382 27.4033H149.61C151.368 27.4033 152.729 27.8984 153.695 28.8887C154.685 29.8542 155.18 31.0301 155.18 32.4165C155.18 33.7781 154.685 34.9541 153.695 35.9443C152.729 36.9346 151.368 37.4297 149.61 37.4297H136.241V32.9735H149.61C150.352 32.9735 150.724 32.7879 150.724 32.4165C150.724 32.0452 150.352 31.8595 149.61 31.8595H146.268C143.718 31.8595 141.403 30.8321 139.323 28.7773C137.269 26.6977 136.241 24.1973 136.241 21.276ZM141.811 21.276C141.811 19.9144 142.294 18.7384 143.26 17.7481C144.25 16.7579 145.624 16.2627 147.382 16.2627H160.75V20.719H147.382C146.639 20.719 146.268 20.9046 146.268 21.276C146.268 21.6473 146.639 21.833 147.382 21.833H150.724C153.274 21.833 155.576 22.8728 157.631 24.9524C159.711 27.0072 160.75 29.4952 160.75 32.4165C160.75 35.313 159.711 37.8011 157.631 39.8807C155.576 41.9602 153.274 43 150.724 43H136.241V38.5438H149.61C151.665 38.5438 153.286 37.9373 154.474 36.7242C155.688 35.5111 156.294 34.0752 156.294 32.4165C156.294 30.733 155.688 29.2972 154.474 28.1088C153.286 26.8958 151.665 26.2892 149.61 26.2892H147.382C145.624 26.2892 144.25 25.8065 143.26 24.8409C142.294 23.8507 141.811 22.6624 141.811 21.276ZM162.598 20.719C162.598 14.0346 165.94 10.6925 172.625 10.6925H185.993V15.1487H172.625C168.911 15.1487 167.054 17.0054 167.054 20.719V32.9735C167.054 36.687 168.911 38.5438 172.625 38.5438H185.993V43H172.625C165.94 43 162.598 39.6578 162.598 32.9735V20.719ZM168.168 26.2892V20.719C168.168 17.7481 169.654 16.2627 172.625 16.2627H185.993V20.719H173.739C172.996 20.719 172.625 21.0903 172.625 21.833H182.651V26.2892H168.168ZM168.168 27.4033H182.651V31.8595H172.625C172.625 32.6022 172.996 32.9735 173.739 32.9735H185.993V37.4297H172.625C169.654 37.4297 168.168 35.9443 168.168 32.9735V27.4033Z" fill="#E62222"/>
</svg>
