<svg width="239" height="51" viewBox="0 0 239 51" fill="none" xmlns="http://www.w3.org/2000/svg">
<path d="M140.224 40.7096C140.125 40.6038 140.034 40.4916 139.95 40.3729C139.847 40.227 139.796 40.2418 139.796 40.4174L139.798 43.8652C139.798 43.8961 139.786 43.9258 139.763 43.9477C139.741 43.9696 139.711 43.9818 139.68 43.9818H131.54C131.504 43.9818 131.47 43.968 131.445 43.9434C131.42 43.9189 131.406 43.8855 131.406 43.8508V0.153924C131.406 0.138289 131.409 0.122807 131.415 0.108363C131.421 0.0939186 131.43 0.0807936 131.441 0.0697384C131.453 0.0586831 131.466 0.0499142 131.481 0.0439311C131.496 0.037948 131.512 0.0348681 131.528 0.0348681C134.335 0.0388767 137.125 0.036872 139.897 0.0288548C140.088 0.0280531 140.279 0.0376744 140.468 0.0577174C140.485 0.0596649 140.501 0.0674813 140.513 0.0797959C140.525 0.0921106 140.532 0.108136 140.533 0.125061C140.541 0.258147 140.545 0.473809 140.545 0.772048C140.55 6.70476 140.55 12.6138 140.545 18.4992C140.545 18.6267 140.587 18.6411 140.67 18.5425C141.711 17.3095 142.969 16.4244 144.445 15.8872C145.074 15.6579 145.867 15.4491 146.826 15.2607C148.631 14.9055 150.381 14.8687 152.075 15.1501C154.489 15.5517 156.564 16.5162 158.3 18.0435C159.757 19.327 160.914 20.9056 161.77 22.7792C162.489 24.3514 162.979 26.0598 163.241 27.9046C163.304 28.3527 163.336 28.8703 163.338 29.4571C163.34 29.8035 163.341 30.1498 163.342 30.4961C163.343 30.9178 163.334 31.2642 163.315 31.5352C163.155 33.8104 162.524 35.935 161.423 37.9088C160.342 39.8466 158.817 41.4063 156.85 42.5881C155.263 43.5405 153.564 44.157 151.751 44.4376C150.912 44.5675 150.093 44.6397 149.294 44.6541C146.567 44.7014 144.068 43.8884 141.795 42.2153C141.255 41.8184 140.826 41.4244 140.508 41.0331C140.429 40.9361 140.334 40.8283 140.224 40.7096ZM141.714 33.986C142.249 34.8759 142.97 35.5498 143.876 36.0076C145.036 36.5928 146.261 36.8922 147.55 36.9059C148.425 36.9147 149.241 36.8309 150.001 36.6545C150.99 36.4253 151.853 35.9991 152.592 35.3762C154.051 34.1448 154.835 32.5237 154.944 30.513C154.985 29.7674 154.959 29.0687 154.868 28.4169C154.769 27.7178 154.566 27.054 154.259 26.4254C153.185 24.2303 151.306 23.0129 148.621 22.7732C147.31 22.6561 146.075 22.7908 144.918 23.1773C143.136 23.7721 141.876 24.9342 141.138 26.6635C140.896 27.2311 140.727 27.903 140.63 28.679C140.416 30.3867 140.665 31.9777 141.378 33.4521C141.435 33.5707 141.491 33.6677 141.544 33.7431C141.656 33.9018 141.713 33.9828 141.714 33.986Z" fill="white"/>
<path d="M226.585 7.54551C225.933 8.15722 225.171 8.53643 224.301 8.68314C222.56 8.97657 221.121 8.50236 219.983 7.2605C219.386 6.6071 219.028 5.8639 218.909 5.03092C218.797 4.24123 218.9 3.46196 219.219 2.69311C219.702 1.52581 220.602 0.715673 221.919 0.262702C222.81 -0.0435539 223.693 -0.0820372 224.567 0.147254C225.365 0.356503 226.068 0.752952 226.678 1.3366C227.399 2.02849 227.826 2.86909 227.96 3.85841C228.053 4.5575 227.984 5.21692 227.75 5.83665C227.508 6.47481 227.12 7.04443 226.585 7.54551ZM220.994 6.42711C221.628 7.19355 222.396 7.59682 223.296 7.6369C224.01 7.66897 224.664 7.48979 225.256 7.09935C225.854 6.70571 226.286 6.14571 226.55 5.41935C226.778 4.79562 226.818 4.19914 226.67 3.62992C226.504 2.99015 226.178 2.45219 225.693 2.01606C225.279 1.64486 224.811 1.39553 224.289 1.26806C223.75 1.13738 223.198 1.1458 222.631 1.29331C221.763 1.51859 221.112 2.01245 220.679 2.77489C219.945 4.06886 220.05 5.28627 220.994 6.42711Z" fill="white"/>
<path d="M32.8759 1.72889C35.0518 1.90687 37.0719 2.33218 38.9361 3.00482C39.73 3.29183 40.4757 3.62735 41.1733 4.01138C42.1227 4.5333 43.0182 5.14019 43.8598 5.83208C43.8841 5.85172 43.9001 5.87943 43.9049 5.90998C43.9097 5.94054 43.9028 5.97185 43.8857 5.99803C43.7763 6.16639 43.6451 6.32674 43.4921 6.47906C43.3201 6.65143 43.2329 6.73882 43.2304 6.74122C41.3844 8.691 39.5436 10.6452 37.7082 12.6038C37.7017 12.6102 37.6704 12.6475 37.6145 12.7156C37.468 12.896 37.3027 12.8764 37.1184 12.6567C36.8206 12.3031 36.3603 11.94 35.7375 11.5672C35.0415 11.1503 34.2008 10.8111 33.2152 10.5498C31.6019 10.1217 29.9953 10.08 28.3952 10.4247C27.6778 10.5795 26.9999 10.8352 26.3615 11.192C25.6236 11.6032 25.0868 12.061 24.7511 12.5653C24.2699 13.286 24.1218 14.1287 24.3069 15.0931C24.4722 15.9582 24.9222 16.6444 25.6569 17.1519C26.6638 17.8462 27.9081 18.4182 29.3898 18.868C30.9849 19.3514 32.5863 19.8148 34.1938 20.2582C34.7968 20.4241 35.3875 20.6206 35.9658 20.8475C36.5985 21.0952 37.169 21.3409 37.6774 21.5846C38.9649 22.202 40.1281 23.0017 41.1672 23.9838C41.3367 24.1441 41.5933 24.4359 41.9372 24.8592C42.2325 25.2224 42.46 25.5359 42.6196 25.7997C43.1815 26.7289 43.5484 27.7695 43.7204 28.9216C43.801 29.4635 43.8528 29.9193 43.8758 30.2889C43.8767 30.3065 43.8964 30.5466 43.9351 31.0092C43.9589 31.2946 43.9532 31.5797 43.9178 31.8643C43.8948 32.0511 43.875 32.2856 43.8586 32.5678C43.8479 32.753 43.8248 32.9883 43.7895 33.2737C43.3222 37.0121 41.5329 39.9183 38.4215 41.9924C36.5359 43.2495 34.3908 44.0921 31.9861 44.5202C28.6411 45.1159 25.3056 45.0533 21.9795 44.3326C18.623 43.6062 15.6433 42.0854 13.0404 39.77C13.0283 39.7593 13.0185 39.7464 13.0116 39.732C13.0047 39.7176 13.0008 39.702 13.0001 39.6861C12.9994 39.6702 13.002 39.6544 13.0076 39.6395C13.0132 39.6246 13.0219 39.6109 13.033 39.5992L19.7065 32.5858C19.7118 32.5802 19.7184 32.5758 19.7257 32.5729C19.733 32.57 19.7408 32.5686 19.7487 32.569C19.7566 32.5693 19.7642 32.5713 19.7712 32.5749C19.7782 32.5784 19.7843 32.5833 19.7892 32.5894C21.4427 34.645 23.5817 35.8837 26.206 36.3054C26.7169 36.388 27.3874 36.4421 28.2175 36.4677C28.3902 36.4733 28.5408 36.4673 28.6691 36.4497C28.9398 36.412 29.0879 36.392 29.1134 36.3896C29.5074 36.3639 29.9443 36.295 30.4239 36.1827C31.24 35.9911 31.975 35.6816 32.6291 35.2543C33.2773 34.8302 33.7471 34.3564 34.0383 33.8329C34.3739 33.23 34.5056 32.5529 34.4332 31.8017C34.3476 30.9134 33.9622 30.179 33.2769 29.5986C32.7257 29.1312 31.9828 28.6726 31.0483 28.2229C30.2281 27.8284 29.1561 27.43 27.8325 27.0275C26.9382 26.7557 26.046 26.4779 25.1559 26.1941C23.6627 25.7187 22.8812 25.469 22.8113 25.4449C20.9874 24.8019 19.3548 23.9216 17.9135 22.804C17.2339 22.2765 16.5795 21.5726 15.9502 20.6923C15.2229 19.6749 14.7721 18.5497 14.5977 17.3167C14.3714 15.7261 14.3533 14.3006 14.5434 13.0403C14.7087 11.9444 14.9757 10.9426 15.3443 10.0351C15.6289 9.33519 16.0221 8.63368 16.524 7.93057C18.0303 5.82045 20.0027 4.26672 22.4411 3.26939C25.6931 1.93934 29.1714 1.42584 32.8759 1.72889Z" fill="white"/>
<path d="M224.91 4.65851C224.806 4.72345 224.751 4.74671 224.573 4.7932C224.368 4.85346 224.345 4.88379 224.449 5.04093L225.437 6.5213C225.508 6.62873 225.478 6.68245 225.345 6.68245H224.245C224.226 6.68246 224.207 6.6776 224.19 6.66833C224.174 6.65906 224.16 6.6457 224.15 6.62953L223.088 4.9808C223.005 4.85253 222.964 4.86776 222.965 5.0265L222.97 6.52251C222.97 6.54346 222.966 6.56424 222.958 6.58364C222.951 6.60304 222.939 6.62068 222.925 6.63555C222.911 6.65042 222.894 6.66222 222.875 6.67027C222.856 6.67832 222.836 6.68246 222.816 6.68245L221.736 6.68486C221.705 6.68484 221.675 6.67262 221.653 6.65081C221.631 6.62901 221.618 6.59935 221.617 6.56821C221.608 6.03506 221.609 5.52557 221.619 5.03973C221.619 5.03171 221.621 2.08741 221.621 2.08741L223.774 2.0874C224.219 2.09622 224.621 2.2265 224.978 2.47824C225.265 2.68107 225.416 2.96007 225.429 3.31523C225.438 3.56537 225.43 3.76901 225.406 3.92614C225.372 4.14662 225.293 4.31539 225.134 4.47983C225.128 4.48544 225.025 4.58658 224.91 4.65851ZM222.969 3.09516L222.981 3.84918C222.981 3.87069 222.99 3.8914 223.006 3.90736C223.022 3.92332 223.044 3.93343 223.067 3.93576C223.374 3.96783 223.621 3.94498 223.808 3.86722C224.01 3.78303 224.103 3.65476 224.087 3.48239C224.075 3.35251 224 3.24308 223.861 3.15409C223.612 2.99455 223.339 2.94684 223.041 3.01098C223.02 3.01545 223.002 3.02629 222.988 3.04164C222.975 3.057 222.968 3.07592 222.969 3.09516Z" fill="white"/>
<path d="M50.1599 40.384C48.2751 38.4735 47.0271 36.2235 46.4159 33.6339C46.0687 32.1612 45.9301 30.6684 46 29.1555C46.0938 27.1023 46.587 25.1646 47.4796 23.3423C47.8276 22.6311 48.2492 21.9449 48.7444 21.2835C51.1541 18.0662 54.4587 16.0803 58.6585 15.3259C60.4223 15.0092 62.1195 14.9046 63.75 15.012C66.4171 15.1892 68.8617 15.8674 71.0838 17.0468C72.0043 17.5358 72.8978 18.1523 73.764 18.8963C74.3975 19.4407 74.968 20.0171 75.4756 20.6256C77.2896 22.8007 78.3546 25.2964 78.6705 28.1129C78.7198 28.5474 78.7441 29.1026 78.7433 29.7785C78.7433 30.1489 78.742 30.5196 78.7396 30.8908C78.7363 31.3109 78.7157 31.6813 78.6779 32.002C78.5174 33.3489 78.2073 34.5671 77.7474 35.6567C76.2773 39.1393 73.8118 41.6924 70.3508 43.3159C69.0295 43.9356 67.6203 44.3842 66.123 44.6616C62.4111 45.3486 58.8123 45.0404 55.3267 43.7368C53.3629 43.0024 51.6407 41.8848 50.1599 40.384ZM57.9107 24.0674C57.4196 24.4242 56.993 24.823 56.631 25.264C56.2929 25.6761 56.005 26.1719 55.7672 26.7516C54.9791 28.6725 54.9067 30.6439 55.55 32.6658C56.0971 34.3831 57.1526 35.6326 58.7165 36.4143C59.271 36.6909 59.8876 36.8901 60.5663 37.012C61.1825 37.1234 61.8344 37.1827 62.5222 37.1899C62.7089 37.1923 62.8702 37.1847 63.0059 37.1671C63.2939 37.1286 63.4411 37.109 63.4477 37.1082C64.824 37.0023 66.0243 36.5401 67.0485 35.7216C67.5849 35.2927 68.0386 34.7896 68.4097 34.2124C68.7799 33.6367 69.0575 33.0134 69.2426 32.3424C69.6293 30.9393 69.6692 29.5263 69.3623 28.1033C69.0925 26.8478 68.5285 25.7679 67.6705 24.8635C67.1975 24.3649 66.6693 23.96 66.086 23.6489C65.4888 23.3306 64.8462 23.1078 64.1585 22.9803C62.5798 22.6869 61.0278 22.7775 59.5026 23.2521C58.9547 23.422 58.424 23.6938 57.9107 24.0674Z" fill="white"/>
<path d="M97.7997 23.3295C97.2978 22.9583 96.7039 22.7555 96.0178 22.721C95.4789 22.6945 94.9454 22.7202 94.4172 22.798C93.857 22.8813 93.3539 23.0413 92.908 23.2778C91.9101 23.8069 91.1961 24.5818 90.7658 25.6024C90.5914 26.0169 90.4495 26.5708 90.3401 27.2643C90.2422 27.8873 90.1912 28.4573 90.187 28.9744C90.1854 29.1355 90.178 29.2702 90.1648 29.3785C90.1385 29.5949 90.1249 29.7276 90.1241 29.7765C90.1044 34.4481 90.1023 39.1366 90.1179 43.8419C90.1179 43.8776 90.1034 43.9118 90.0775 43.9371C90.0515 43.9623 90.0164 43.9765 89.9797 43.9765H81.1368C81.0926 43.9765 81.0502 43.9594 81.019 43.929C80.9878 43.8985 80.9702 43.8573 80.9702 43.8142V15.817C80.9702 15.7682 80.99 15.7214 81.0252 15.6869C81.0603 15.6524 81.108 15.633 81.1578 15.633H89.5466C89.573 15.633 89.5992 15.6381 89.6236 15.6481C89.648 15.6581 89.6701 15.6727 89.6888 15.6911C89.7075 15.7096 89.7223 15.7314 89.7324 15.7555C89.7425 15.7796 89.7477 15.8054 89.7477 15.8314V19.3814C89.7469 19.4961 89.7761 19.5037 89.8354 19.4043C90.5519 18.2001 91.5144 17.2433 92.7229 16.5337C94.8561 15.2799 97.2193 14.7868 99.8123 15.0546C101.426 15.2213 102.886 15.6639 104.192 16.3822C104.917 16.7815 105.542 17.2641 106.068 17.8301C106.625 18.4306 107.074 19.0872 107.415 19.7999C107.477 19.929 107.544 19.9318 107.617 19.8084C108.126 18.9561 108.711 18.2065 109.372 17.5595C109.968 16.9759 110.63 16.5061 111.358 16.1501C112.133 15.7717 112.984 15.4867 113.911 15.2951C115.262 15.0161 116.689 14.9435 118.192 15.0774C119.369 15.1816 120.445 15.4278 121.421 15.8158C122.871 16.393 124.036 17.2741 124.917 18.4591C125.711 19.5278 126.283 20.7452 126.634 22.1113C126.884 23.0862 127.058 24.0719 127.157 25.0684C127.211 25.6192 127.238 26.4201 127.238 27.4712C127.238 32.9245 127.238 38.3866 127.238 43.8575C127.238 43.8731 127.235 43.8886 127.229 43.903C127.223 43.9175 127.214 43.9306 127.202 43.9417C127.191 43.9527 127.178 43.9615 127.163 43.9675C127.148 43.9735 127.132 43.9765 127.116 43.9765H118.241C118.205 43.9765 118.171 43.9627 118.146 43.9381C118.121 43.9136 118.107 43.8802 118.107 43.8455C118.107 38.3505 118.107 32.8423 118.107 27.3209C118.107 26.4133 117.907 25.5434 117.509 24.7113C117.198 24.0619 116.811 23.5848 116.347 23.2802C115.816 22.9314 115.189 22.745 114.466 22.721C113.648 22.6937 112.906 22.7755 112.241 22.9663C110.978 23.3295 110.046 24.0811 109.446 25.2212C109.148 25.7888 108.95 26.4185 108.851 27.1104C108.758 27.771 108.71 28.3523 108.707 28.8541C108.683 33.8272 108.677 38.8007 108.69 43.7745C108.69 43.8042 108.678 43.8326 108.657 43.8536C108.635 43.8746 108.606 43.8863 108.576 43.8863L99.7074 43.8803C99.6675 43.8803 99.6292 43.8646 99.601 43.8367C99.5728 43.8087 99.5569 43.7708 99.5569 43.7312C99.5659 38.5168 99.5688 33.4416 99.5655 28.5054C99.5655 28.2937 99.5478 28.0468 99.5125 27.7646C99.482 27.5177 99.4602 27.2699 99.4471 27.0214C99.4051 26.1916 99.2467 25.4621 98.972 24.8327C98.698 24.2066 98.3073 23.7055 97.7997 23.3295Z" fill="white"/>
<path d="M174.788 19.9441C174.788 20.1349 174.835 20.1457 174.929 19.9766C175.328 19.2542 175.797 18.5796 176.338 17.9526C177.855 16.1929 179.797 15.2172 182.164 15.0256C183.535 14.9141 184.898 14.9855 186.253 15.2396C186.272 15.2433 186.289 15.2532 186.302 15.2676C186.314 15.2821 186.321 15.3003 186.321 15.319L186.351 23.1682C186.351 23.1816 186.348 23.1948 186.341 23.2069C186.335 23.2189 186.327 23.2295 186.316 23.2377C186.305 23.246 186.292 23.2517 186.278 23.2544C186.265 23.2572 186.251 23.2569 186.237 23.2536C185.145 22.9882 184.072 22.8098 183.02 22.7184C182.09 22.6375 181.121 22.6924 180.115 22.8832C179.199 23.0564 178.431 23.3274 177.81 23.6961C176.432 24.5147 175.557 25.7521 175.186 27.4085C175.067 27.9424 174.98 28.48 174.925 29.0212C174.888 29.3883 174.85 29.9315 174.813 30.6506C174.772 31.4147 174.755 32.2906 174.759 33.2783C174.777 36.8235 174.774 40.3534 174.752 43.8682C174.752 43.8962 174.741 43.9232 174.72 43.943C174.7 43.9628 174.672 43.974 174.643 43.974L165.76 43.9668C165.743 43.9668 165.725 43.9635 165.709 43.957C165.693 43.9505 165.679 43.941 165.666 43.9291C165.654 43.9171 165.644 43.903 165.638 43.8873C165.631 43.8717 165.628 43.855 165.628 43.8381V15.7495C165.628 15.724 165.638 15.6995 165.656 15.6815C165.675 15.6634 165.699 15.6533 165.725 15.6533L174.552 15.6244C174.705 15.6236 174.782 15.7002 174.783 15.8541L174.788 19.9441Z" fill="white"/>
<path d="M191.277 40.9787C190.399 40.1489 189.628 39.1869 188.964 38.0925C188.099 36.6687 187.503 35.054 187.174 33.2485C187.103 32.8557 187.046 32.3703 187.005 31.7922C186.971 31.3048 186.937 30.8169 186.904 30.3287C186.887 30.0641 186.884 29.8685 186.897 29.7418C186.909 29.6143 186.915 29.549 186.915 29.5458C186.989 27.4742 187.425 25.4478 188.223 23.4668C188.78 22.083 189.512 20.8251 190.419 19.6931C190.935 19.0469 191.499 18.4653 192.109 17.9481C194.353 16.0465 197.022 15.0612 200.117 14.9922C201.502 14.9617 202.98 15.1333 204.551 15.5069C205.819 15.8092 206.891 16.2577 207.766 16.8526C208.497 17.3489 209.135 17.9405 209.68 18.6276C209.731 18.6909 209.756 18.6821 209.756 18.6011L209.742 15.6921C209.742 15.6757 209.745 15.6594 209.752 15.6443C209.759 15.6291 209.768 15.6153 209.78 15.6037C209.792 15.5921 209.807 15.5829 209.823 15.5766C209.839 15.5703 209.856 15.567 209.873 15.567H218.734C218.771 15.567 218.806 15.5812 218.832 15.6065C218.858 15.6318 218.872 15.666 218.872 15.7017V43.8697C218.872 43.8984 218.861 43.9259 218.84 43.9462C218.819 43.9665 218.791 43.9779 218.761 43.9779H210.579C210.534 43.9779 210.492 43.9608 210.461 43.9304C210.43 43.8999 210.412 43.8586 210.412 43.8156V40.4592C210.412 40.2668 210.359 40.2511 210.252 40.4123C209.867 40.9911 209.392 41.507 208.826 41.96C208.371 42.324 207.79 42.7108 207.083 43.1205C205.501 44.0368 203.803 44.5431 201.99 44.6393C200.268 44.7307 198.544 44.5399 196.818 44.0669C195.982 43.8368 195.215 43.5518 194.516 43.2119C193.312 42.6258 192.233 41.8814 191.277 40.9787ZM196.645 34.2142C197.513 35.3999 198.625 36.1844 199.983 36.5676C200.688 36.7665 201.476 36.8763 202.348 36.8972C203.158 36.9164 203.957 36.8282 204.743 36.6326C205.589 36.4233 206.332 36.093 206.973 35.6417C208.343 34.6772 209.201 33.3171 209.548 31.5613C209.809 30.2425 209.787 28.9613 209.482 27.7179C209.282 26.9009 208.956 26.171 208.504 25.528C207.609 24.2517 206.387 23.4167 204.838 23.023C204.084 22.8322 203.269 22.7344 202.393 22.7296C201.283 22.7232 200.246 22.9136 199.283 23.3008C198.142 23.7594 197.229 24.4906 196.543 25.4943C196.109 26.1277 195.782 26.8588 195.56 27.6878C195.26 28.8022 195.195 29.9443 195.366 31.114C195.529 32.2388 195.956 33.2722 196.645 34.2142Z" fill="white"/>
</svg>
