<svg width="87" height="73" viewBox="0 0 87 73" fill="none" xmlns="http://www.w3.org/2000/svg">
<path d="M43.498 0C65.1786 0 83.2163 15.7356 87 36.5C83.2204 57.2644 65.1786 73 43.498 73C21.8173 73 3.77964 57.2644 0 36.5C3.77964 15.7356 21.8173 0 43.498 0ZM43.498 64.8889C51.6992 64.888 59.6571 62.079 66.0691 56.9217C72.4811 51.7643 76.9673 44.5642 78.7934 36.5C76.9624 28.4409 72.4743 21.2469 66.0632 16.0946C59.6521 10.9424 51.6973 8.13685 43.5 8.13685C35.3027 8.13685 27.3479 10.9424 20.9368 16.0946C14.5256 21.2469 10.0376 28.4409 8.20664 36.5C10.0325 44.5635 14.5181 51.7631 20.9293 56.9204C27.3405 62.0777 35.2975 64.8871 43.498 64.8889ZM43.498 54.75C38.6992 54.75 34.0969 52.8272 30.7036 49.4047C27.3103 45.9822 25.404 41.3402 25.404 36.5C25.404 31.6598 27.3103 27.0178 30.7036 23.5953C34.0969 20.1728 38.6992 18.25 43.498 18.25C48.2968 18.25 52.8991 20.1728 56.2924 23.5953C59.6857 27.0178 61.592 31.6598 61.592 36.5C61.592 41.3402 59.6857 45.9822 56.2924 49.4047C52.8991 52.8272 48.2968 54.75 43.498 54.75ZM43.498 46.6389C46.164 46.6389 48.7208 45.5707 50.606 43.6693C52.4911 41.7679 53.5502 39.189 53.5502 36.5C53.5502 33.811 52.4911 31.2321 50.606 29.3307C48.7208 27.4293 46.164 26.3611 43.498 26.3611C40.832 26.3611 38.2751 27.4293 36.39 29.3307C34.5048 31.2321 33.4458 33.811 33.4458 36.5C33.4458 39.189 34.5048 41.7679 36.39 43.6693C38.2751 45.5707 40.832 46.6389 43.498 46.6389Z" fill="#E30613"/>
</svg>
