<svg width="1840" height="1205" viewBox="0 0 1840 1205" fill="none" xmlns="http://www.w3.org/2000/svg">
<rect width="1840" height="1205" rx="64" fill="white"/>
<path d="M445.75 563.211C445.75 563.211 472.31 543.701 536.23 543.701H538.62C538.62 543.701 548.89 307.131 401.66 270.821C381.32 265.741 361.61 280.991 361.61 301.951V769.801H596.52V709.831C596.52 636.991 520.26 563.221 445.76 563.221L445.75 563.211ZM405.91 323.421C405.91 320.621 408.92 318.851 411.41 320.101C498.77 367.311 493.28 500.741 493.28 500.741C461.63 502.501 405.91 533.321 405.91 533.321V323.431V323.421ZM550.65 724.451H405.91V593.401H420.75C492.55 593.401 550.66 651.301 550.66 722.681V724.441L550.65 724.451Z" fill="black"/>
<path d="M1439.03 270.821C1291.9 307.141 1302.17 543.701 1302.17 543.701H1304.66C1368.47 543.701 1395.03 563.211 1395.03 563.211C1320.53 563.211 1244.27 636.981 1244.27 709.721V769.801H1290.13V722.691C1290.13 651.301 1348.34 593.411 1420.04 593.411H1434.88V769.801H1479.18V301.951C1479.18 280.991 1459.46 265.741 1439.02 270.821H1439.03ZM1434.88 533.331C1434.88 533.331 1379.16 502.511 1347.51 500.751C1347.51 500.751 1342.01 367.321 1429.38 320.111C1431.87 318.861 1434.88 320.631 1434.88 323.431V533.331Z" fill="black"/>
<path d="M649.12 495.26C641.95 535.15 641.02 600.68 647.55 640.68C654.16 681.17 665.75 718.31 697.32 745.11C712.67 758.14 731.41 768.08 751.53 769.6C780.46 771.78 812.24 757.23 830.79 735.04C856.9 703.81 863.45 684.4 874.04 627.5C889.53 544.23 879.8 458.19 845.12 380.85C832.58 352.89 817.71 325.69 797.04 302.67C793.23 298.42 789.09 294.47 784.83 290.67C775.93 282.7 766.02 274.84 754.2 272.15C743.57 269.74 725.72 267.08 719.42 278.49C717.44 282.07 716.77 286.24 716.85 290.32C717.07 300.78 722.11 308.68 729.15 315.93C732.74 319.63 736.01 323.46 740 326.89C744.48 330.74 749.12 334.39 753.67 338.14C768.49 350.37 782.52 363.97 793.07 380.1C804.06 396.89 810.94 417.54 816.68 436.66C826.26 468.57 830.34 501.97 832.4 535.12C833.04 545.5 833.47 555.89 833.72 566.28C834.9 614.89 819.85 725.65 756.61 725.65C707.74 725.65 695.48 651.27 693.92 640.21C678.23 528.93 697.76 456.52 719.18 379.41C723.78 362.85 720.43 345.11 710.24 331.23C707.68 327.75 705.36 324.49 703.41 321.71C700.92 318.17 695.44 319.04 694.18 323.17C688.57 341.55 677.19 378.93 674.68 388.37C663.48 430.45 656.11 456.34 649.11 495.26H649.12Z" fill="black"/>
<path d="M1086.39 275.4L1195.84 769.8H1139.99L1069.32 428.45C1069.32 428.45 1009.53 485.51 996.39 609.53C983.25 733.55 991.54 769.8 991.54 769.8H932.41C932.41 769.8 920.17 685.81 941.85 595.6C963.53 505.38 1029.23 403.38 1056.17 399.29C1056.17 399.29 1033.83 331.62 1038.43 307.97C1041.71 291.1 1063.71 277.24 1076.06 270.67C1080.24 268.45 1085.36 270.79 1086.38 275.41L1086.39 275.4Z" fill="black"/>
<path d="M1308.89 929.121C1308.89 929.121 1308.74 896.981 1308.74 889.221C1308.74 872.031 1294.56 863.391 1277.01 863.391C1255.03 863.391 1245.3 874.791 1244.14 885.961C1247.73 885.961 1258.61 885.971 1261.32 885.971C1263.79 880.651 1268.24 879.471 1276.8 879.471C1287.63 879.471 1292.26 882.571 1292.26 887.691C1292.26 888.811 1291.9 890.041 1290.98 890.881C1289.03 892.711 1286.29 893.451 1283.43 894.111C1279.59 894.991 1275.54 895.251 1271.63 895.501C1269.7 895.631 1267.71 895.751 1265.71 895.961C1257.66 897.001 1238.68 900.481 1238.68 921.361C1238.68 935.041 1248.07 948.011 1269.61 948.011C1279.27 948.011 1288.49 943.751 1293.03 939.751C1293.38 941.721 1294.6 945.031 1295.27 946.121H1312.16C1310.49 943.551 1308.76 934.101 1308.89 929.101V929.121ZM1292.3 907.511C1292.3 908.031 1292.3 908.541 1292.3 909.031C1292.3 909.641 1292.3 910.251 1292.3 910.861C1292.32 913.821 1292.33 916.621 1291.43 919.271C1290.3 922.931 1287.49 926.141 1283.7 928.091C1279.95 930.081 1275.34 931.951 1269.99 931.951C1262.43 931.951 1255.87 926.881 1255.87 921.751C1255.76 919.341 1255.98 917.091 1257.45 915.581C1259.31 913.681 1261.97 912.751 1264.07 912.171C1267.44 911.281 1270.87 911.001 1274.5 910.701C1277.04 910.491 1279.67 910.281 1282.24 909.831C1285.45 909.301 1289.04 908.521 1292.3 906.831C1292.3 907.051 1292.3 907.281 1292.3 907.511Z" fill="#CE0E2D"/>
<path d="M1051.1 863.44C1043 863.44 1036.87 866.05 1032.18 870.02C1032.18 869.92 1032.15 865.28 1032.15 865.28H1015.48V946.14H1032.67C1032.67 946.14 1032.65 902.83 1032.65 898.47C1032.65 887.15 1038.28 879.47 1049.38 879.47C1059.72 879.47 1064.74 886.33 1064.74 898.13C1064.74 905.54 1064.74 946.13 1064.74 946.13H1081.63C1081.63 946.13 1081.62 900.45 1081.62 897.62C1081.62 880.71 1072.57 863.43 1051.1 863.43V863.44Z" fill="#CE0E2D"/>
<path d="M899.38 863.4C889.44 863.4 883.15 867.83 881.03 869.64V836.61H863.83V946.15L881.03 946.13V896.26C881.03 886.5 888.34 879.47 897.74 879.47C909.53 879.47 913.1 888.99 913.1 899.17V946.14H929.99C929.99 946.14 929.98 904.03 929.98 898.46C929.98 880.42 920.98 863.39 899.38 863.39V863.4Z" fill="#CE0E2D"/>
<path d="M824.15 895.561C809.07 892.241 807.33 889.731 807.33 885.171C807.33 880.191 812.49 877.331 821.32 877.331C831.87 877.331 836.31 881.271 837.52 888.571H854.72C854.18 880.711 847.63 863.391 821.47 863.391C801.85 863.391 790.13 871.881 790.13 886.501C790.13 898.791 798.28 906.071 816.56 910.111C830.86 913.341 837.83 915.231 837.83 922.861C837.83 929.151 831.41 933.211 821.62 933.211C807.36 933.211 803.94 924.721 803.94 920.201H786.74C786.74 934.081 799.4 948.001 821.47 948.001C841.85 948.001 855.02 937.351 855.02 921.821C855.02 903.921 840.42 899.171 824.15 895.541V895.561Z" fill="#CE0E2D"/>
<path d="M1126.72 895.561C1111.64 892.241 1109.9 889.731 1109.9 885.171C1109.9 880.191 1115.06 877.331 1123.89 877.331C1134.44 877.331 1138.88 881.271 1140.09 888.571H1157.29C1156.75 880.711 1150.2 863.391 1124.04 863.391C1104.42 863.391 1092.7 871.881 1092.7 886.501C1092.7 898.791 1100.85 906.071 1119.13 910.111C1133.43 913.341 1140.4 915.231 1140.4 922.861C1140.4 929.151 1133.98 933.211 1124.19 933.211C1109.93 933.211 1106.51 924.721 1106.51 920.201H1089.31C1089.31 934.081 1101.97 948.001 1124.04 948.001C1144.42 948.001 1157.59 937.351 1157.59 921.821C1157.59 903.921 1142.99 899.171 1126.72 895.541V895.561Z" fill="#CE0E2D"/>
<path d="M1237.31 863.4H1213.67L1184.54 892.24V836.61H1167.35V946.13L1184.54 946.14V908.29L1217.91 946.14H1241.57L1199.89 899.54L1237.31 863.4Z" fill="#CE0E2D"/>
<path d="M761.651 873.1V865.281H745.681V946.141H762.881V898.79C762.881 886.82 771.211 880.06 781.851 880.06H783.321V864.11C782.891 864.04 782.031 863.98 781.081 863.98C773.051 863.98 766.191 867.68 761.641 873.1H761.651Z" fill="#CE0E2D"/>
<path d="M695.22 863.4C671.82 863.4 653.92 882.51 653.92 905.72C653.92 928.93 671.81 948.04 695.22 948.04C718.63 948.04 736.52 928.93 736.52 905.72C736.52 882.51 718.63 863.4 695.22 863.4ZM695.22 931.95C681.31 931.95 671.09 920.06 671.09 905.71C671.09 891.36 681.31 879.47 695.22 879.47C709.13 879.47 719.35 891.36 719.35 905.71C719.35 920.06 709.13 931.95 695.22 931.95Z" fill="#CE0E2D"/>
<path d="M611.8 863.4C600.9 863.4 593.3 867.21 587.15 873.69C584.73 870.63 577.89 863.4 564.36 863.4C554.64 863.4 548.49 867.24 545.35 870.69V865.33H528.64L528.61 946.14H545.81C545.81 946.14 545.79 902.95 545.79 896.74C545.79 887.68 551.15 879.48 562.52 879.48C572.75 879.48 577.88 886.7 577.88 897.18C577.88 902.93 577.88 946.15 577.88 946.15H594.54V895.81C594.54 886.39 601.43 879.48 611.26 879.48C621.09 879.48 627.51 886.29 627.51 897.03V946.13H644.72V896.1C644.72 875.58 626.44 863.4 611.79 863.4H611.8Z" fill="#CE0E2D"/>
<path d="M978.34 898.221C975.58 905.351 972.82 912.471 970.05 919.651C967.13 911.511 964.17 903.371 961.22 895.241C957.75 885.681 950.39 865.281 950.39 865.281H930.92C930.92 865.281 959.18 936.861 961.3 942.331C956.52 954.691 949.55 972.731 949.55 972.731H966.79L1008.95 865.291H991.05L978.34 898.231V898.221Z" fill="#CE0E2D"/>
</svg>
