<?xml version="1.0" encoding="UTF-8"?><svg id="_Слой_2" xmlns="http://www.w3.org/2000/svg" viewBox="0 0 1424.78 1000"><defs><style>.cls-1{fill:#ce0e2d;}</style></defs><g><g><path d="M237.75,460.21s26.56-19.51,90.48-19.51h2.39s10.27-236.57-136.96-272.88c-20.34-5.08-40.05,10.17-40.05,31.13v467.85h234.91v-59.97c0-72.84-76.26-146.61-150.76-146.61Zm-39.84-239.79c0-2.8,3.01-4.57,5.5-3.32,87.36,47.21,81.87,180.64,81.87,180.64-31.65,1.76-87.37,32.58-87.37,32.58V220.43Zm144.74,401.03H197.91v-131.05h14.84c71.8,0,129.91,57.9,129.91,129.28v1.76Z"/><path d="M1231.03,167.82c-147.13,36.32-136.86,272.88-136.86,272.88h2.49c63.81,0,90.37,19.51,90.37,19.51-74.5,0-150.76,73.77-150.76,146.51v60.08h45.86v-47.11c0-71.39,58.21-129.28,129.91-129.28h14.84v176.39h44.3V198.95c0-20.96-19.72-36.21-40.16-31.13Zm-4.15,262.51s-55.72-30.82-87.37-32.58c0,0-5.5-133.43,81.87-180.64,2.49-1.25,5.5,.52,5.5,3.32v209.9Z"/><path d="M441.12,392.26c-7.17,39.89-8.1,105.42-1.57,145.42,6.61,40.49,18.2,77.63,49.77,104.43,15.35,13.03,34.09,22.97,54.21,24.49,28.93,2.18,60.71-12.37,79.26-34.56,26.11-31.23,32.66-50.64,43.25-107.54,15.49-83.27,5.76-169.31-28.92-246.65-12.54-27.96-27.41-55.16-48.08-78.18-3.81-4.25-7.95-8.2-12.21-12-8.9-7.97-18.81-15.83-30.63-18.52-10.63-2.41-28.48-5.07-34.78,6.34-1.98,3.58-2.65,7.75-2.57,11.83,.22,10.46,5.26,18.36,12.3,25.61,3.59,3.7,6.86,7.53,10.85,10.96,4.48,3.85,9.12,7.5,13.67,11.25,14.82,12.23,28.85,25.83,39.4,41.96,10.99,16.79,17.87,37.44,23.61,56.56,9.58,31.91,13.66,65.31,15.72,98.46,.64,10.38,1.07,20.77,1.32,31.16,1.18,48.61-13.87,159.37-77.11,159.37-48.87,0-61.13-74.38-62.69-85.44-15.69-111.28,3.84-183.69,25.26-260.8,4.6-16.56,1.25-34.3-8.94-48.18-2.56-3.48-4.88-6.74-6.83-9.52-2.49-3.54-7.97-2.67-9.23,1.46-5.61,18.38-16.99,55.76-19.5,65.2-11.2,42.08-18.57,67.97-25.57,106.89Z"/></g><path d="M878.39,172.4l109.45,494.4h-55.85l-70.67-341.35s-59.79,57.06-72.93,181.08c-13.14,124.02-4.85,160.27-4.85,160.27h-59.13s-12.24-83.99,9.44-174.2c21.68-90.22,87.38-192.22,114.32-196.31,0,0-22.34-67.67-17.74-91.32,3.28-16.87,25.28-30.73,37.63-37.3,4.18-2.22,9.3,.12,10.32,4.74Z"/></g><g><path class="cls-1" d="M1100.89,826.12s-.15-32.14-.15-39.9c0-17.19-14.18-25.83-31.73-25.83-21.98,0-31.71,11.4-32.87,22.57,3.59,0,14.47,.01,17.18,.01,2.47-5.32,6.92-6.5,15.48-6.5,10.83,0,15.46,3.1,15.46,8.22,0,1.12-.36,2.35-1.28,3.19-1.95,1.83-4.69,2.57-7.55,3.23-3.84,.88-7.89,1.14-11.8,1.39-1.93,.13-3.92,.25-5.92,.46-8.05,1.04-27.03,4.52-27.03,25.4,0,13.68,9.39,26.65,30.93,26.65,9.66,0,18.88-4.26,23.42-8.26,.35,1.97,1.57,5.28,2.24,6.37h16.89c-1.67-2.57-3.4-12.02-3.27-17.02Zm-16.59-21.61c0,.52,0,1.03,0,1.52,0,.61,0,1.22,0,1.83,.02,2.96,.03,5.76-.87,8.41-1.13,3.66-3.94,6.87-7.73,8.82-3.75,1.99-8.36,3.86-13.71,3.86-7.56,0-14.12-5.07-14.12-10.2-.11-2.41,.11-4.66,1.58-6.17,1.86-1.9,4.52-2.83,6.62-3.41,3.37-.89,6.8-1.17,10.43-1.47,2.54-.21,5.17-.42,7.74-.87,3.21-.53,6.8-1.31,10.06-3,0,.22,0,.45,0,.68Z"/><path class="cls-1" d="M843.1,760.44c-8.1,0-14.23,2.61-18.92,6.58,0-.1-.03-4.74-.03-4.74h-16.67v80.86s17.19,0,17.19,0c0,0-.02-43.31-.02-47.67,0-11.32,5.63-19,16.73-19,10.34,0,15.36,6.86,15.36,18.66,0,7.41,0,48,0,48h16.89s-.01-45.68-.01-48.51c0-16.91-9.05-34.19-30.52-34.19Z"/><path class="cls-1" d="M691.38,760.4c-9.94,0-16.23,4.43-18.35,6.24v-33.03h-17.2v109.54l17.2-.02v-49.87c0-9.76,7.31-16.79,16.71-16.79,11.79,0,15.36,9.52,15.36,19.7v46.97h16.89s-.01-42.11-.01-47.68c0-18.04-9-35.07-30.6-35.07Z"/><path class="cls-1" d="M616.15,792.56c-15.08-3.32-16.82-5.83-16.82-10.39,0-4.98,5.16-7.84,13.99-7.84,10.55,0,14.99,3.94,16.2,11.24h17.2c-.54-7.86-7.09-25.18-33.25-25.18-19.62,0-31.34,8.49-31.34,23.11,0,12.29,8.15,19.57,26.43,23.61,14.3,3.23,21.27,5.12,21.27,12.75,0,6.29-6.42,10.35-16.21,10.35-14.26,0-17.68-8.49-17.68-13.01h-17.2c0,13.88,12.66,27.8,34.73,27.8,20.38,0,33.55-10.65,33.55-26.18,0-17.9-14.6-22.65-30.87-26.28Z"/><path class="cls-1" d="M918.72,792.56c-15.08-3.32-16.82-5.83-16.82-10.39,0-4.98,5.16-7.84,13.99-7.84,10.55,0,14.99,3.94,16.2,11.24h17.2c-.54-7.86-7.09-25.18-33.25-25.18-19.62,0-31.34,8.49-31.34,23.11,0,12.29,8.15,19.57,26.43,23.61,14.3,3.23,21.27,5.12,21.27,12.75,0,6.29-6.42,10.35-16.21,10.35-14.26,0-17.68-8.49-17.68-13.01h-17.2c0,13.88,12.66,27.8,34.73,27.8,20.38,0,33.55-10.65,33.55-26.18,0-17.9-14.6-22.65-30.87-26.28Z"/><polygon class="cls-1" points="1029.31 760.4 1005.67 760.4 976.54 789.24 976.54 733.61 959.35 733.61 959.35 843.13 976.54 843.14 976.54 805.29 1009.91 843.14 1033.57 843.14 991.89 796.54 1029.31 760.4"/><path class="cls-1" d="M553.65,770.1v-7.82h-15.97v80.86h17.2v-47.35c0-11.97,8.33-18.73,18.97-18.73h1.47v-15.95c-.43-.07-1.29-.13-2.24-.13-8.03,0-14.89,3.7-19.44,9.12Z"/><path class="cls-1" d="M487.22,760.4c-23.4,0-41.3,19.11-41.3,42.32s17.89,42.32,41.3,42.32,41.3-19.11,41.3-42.32-17.89-42.32-41.3-42.32Zm0,68.55c-13.91,0-24.13-11.89-24.13-26.24s10.22-26.24,24.13-26.24,24.13,11.89,24.13,26.24-10.22,26.24-24.13,26.24Z"/><path class="cls-1" d="M403.8,760.4c-10.9,0-18.5,3.81-24.65,10.29-2.42-3.06-9.26-10.29-22.79-10.29-9.72,0-15.87,3.84-19.01,7.29v-5.36s-16.71,0-16.71,0l-.03,80.81h17.2s-.02-43.19-.02-49.4c0-9.06,5.36-17.26,16.73-17.26,10.23,0,15.36,7.22,15.36,17.7,0,5.75,0,48.97,0,48.97h16.66v-50.34c0-9.42,6.89-16.33,16.72-16.33s16.25,6.81,16.25,17.55v49.1h17.21v-50.03c0-20.52-18.28-32.7-32.93-32.7Z"/><path class="cls-1" d="M770.34,795.22c-2.76,7.13-5.52,14.25-8.29,21.43-2.92-8.14-5.88-16.28-8.83-24.41-3.47-9.56-10.83-29.96-10.83-29.96h-19.47s28.26,71.58,30.38,77.05c-4.78,12.36-11.75,30.4-11.75,30.4h17.24l42.16-107.44h-17.9l-12.71,32.94Z"/></g></svg>