<svg width="85" height="150" viewBox="0 0 85 150" fill="none" xmlns="http://www.w3.org/2000/svg">
<path d="M58.25 104.725C58.25 115.08 49.8553 123.475 39.5 123.475M58.25 104.725C58.25 94.3697 49.8553 85.9751 39.5 85.9751M58.25 104.725H20.75M39.5 123.475C29.1447 123.475 20.75 115.08 20.75 104.725M39.5 123.475C34.6854 118.42 32 111.706 32 104.725C32 97.744 34.6854 91.0304 39.5 85.9751M39.5 123.475C44.3146 118.42 47 111.706 47 104.725C47 97.744 44.3146 91.0304 39.5 85.9751M20.75 104.725C20.75 94.3697 29.1447 85.9751 39.5 85.9751M42.0019 61.6709L75.5019 81.0313C77.0478 81.9248 78 83.5748 78 85.3604V124.09C78 125.875 77.0478 127.525 75.5019 128.419L42.0019 147.779C40.4539 148.674 38.5461 148.674 36.9981 147.779L3.49814 128.419C1.95218 127.525 1 125.875 1 124.09V85.3604C1 83.5748 1.95218 81.9248 3.49814 81.0313L36.9981 61.6709C38.5461 60.7764 40.4539 60.7764 42.0019 61.6709Z" stroke="#E62222" stroke-width="2" stroke-linejoin="round"/>
<path d="M11.0265 43C4.34216 43 1 39.6578 1 32.9735V10.6925H5.45621V32.9735C5.45621 36.687 7.31296 38.5438 11.0265 38.5438H23.281C26.9946 38.5438 28.8513 36.687 28.8513 32.9735V10.6925H33.3075V32.9735C33.3075 39.6578 29.9654 43 23.281 43H11.0265ZM16.5967 37.4297H11.0265C8.05566 37.4297 6.57026 35.9443 6.57026 32.9735V10.6925H11.0265V31.8595C11.0265 32.6022 11.3978 32.9735 12.1405 32.9735V16.2627H16.5967V37.4297ZM17.7108 16.2627H22.167V32.9735C22.9097 32.9735 23.281 32.6022 23.281 31.8595V10.6925H27.7373V32.9735C27.7373 35.9443 26.2519 37.4297 23.281 37.4297H17.7108V16.2627ZM35.1554 20.719C35.1554 14.0346 38.4975 10.6925 45.1818 10.6925H58.5505V15.1487H45.1818C41.4683 15.1487 39.6116 17.0054 39.6116 20.719V32.9735C39.6116 36.687 41.4683 38.5438 45.1818 38.5438H58.5505V43H45.1818C38.4975 43 35.1554 39.6578 35.1554 32.9735V20.719ZM40.7256 26.2892V20.719C40.7256 17.7481 42.211 16.2627 45.1818 16.2627H58.5505V20.719H46.2959C45.5532 20.719 45.1818 21.0903 45.1818 21.833H55.2083V26.2892H40.7256ZM40.7256 27.4033H55.2083V31.8595H45.1818C45.1818 32.6022 45.5532 32.9735 46.2959 32.9735H58.5505V37.4297H45.1818C42.211 37.4297 40.7256 35.9443 40.7256 32.9735V27.4033ZM60.3983 10.9153H72.4301C76.1188 10.9153 79.1391 13.1929 81.491 17.7481C81.8871 19.1345 82.0852 20.4219 82.0852 21.6102C82.0852 23.467 81.59 25.2494 80.5998 26.9576C81.59 28.6906 82.0852 30.5721 82.0852 32.6022C82.0852 37.1327 79.6095 40.4996 74.6582 42.7029L72.4301 43H60.3983V38.5438H71.5388C74.5096 38.5438 76.4902 36.8603 77.4804 33.4934V32.008C77.4804 29.978 76.4406 28.344 74.3611 27.1062C76.4406 25.5713 77.4804 23.8878 77.4804 22.0558V21.016C77.4804 18.7137 76.1436 16.9312 73.4698 15.6686C73.0242 15.4705 72.3805 15.3715 71.5388 15.3715H60.3983V10.9153ZM60.3983 16.4113H71.5388C74.0392 16.4113 75.6732 17.8472 76.4406 20.719V22.0558C76.4406 23.764 75.3514 25.1504 73.1728 26.2149C72.7767 26.413 72.232 26.512 71.5388 26.512H60.3983V23.2441V21.4617V19.6792V16.4113ZM60.3983 27.5518H72.2815C74.0392 27.5518 75.4256 28.8887 76.4406 31.5624V32.7507C76.4406 34.9788 75.1533 36.5633 72.5786 37.504H60.3983V34.5332V32.6022V30.5226V27.5518ZM65.003 32.008V33.0478H70.7961C71.5388 33.0478 71.9349 32.8993 71.9844 32.6022V32.4536C71.9349 32.1566 71.5388 32.008 70.7961 32.008H65.003ZM65.003 20.8675V21.9073H70.7961C71.5388 21.9073 71.9349 21.7587 71.9844 21.4617V21.3131C71.9349 21.016 71.5388 20.8675 70.7961 20.8675H65.003Z" fill="#E62222"/>
</svg>
