<svg width="50" height="51" viewBox="0 0 50 51" fill="none" xmlns="http://www.w3.org/2000/svg">
<path d="M36.2136 17.7884C35.6052 12.7559 33.2832 8.16566 29.7176 4.94655C26.1519 1.72744 21.6088 0.119795 17.0075 0.448877C12.4061 0.77796 8.09008 3.0192 4.93262 6.71913C1.77517 10.4191 0.0120493 15.3014 0 20.3784C0 25.1128 1.49318 29.4644 3.99091 32.8927C5.82727 35.4176 6.81818 38.2077 6.81818 41.163V50.4067H27.2727L27.275 42.8996H31.8182C33.0237 42.8996 34.1798 42.3724 35.0323 41.4338C35.8847 40.4952 36.3636 39.2222 36.3636 37.8949V30.5655L40.8182 28.4635C41.5954 28.0982 41.6636 27.2273 41.3272 26.6443L36.2136 17.7884ZM4.54545 20.3784C4.54196 16.5628 5.85797 12.8889 8.22607 10.1032C10.5942 7.31755 13.8367 5.62906 17.2948 5.38086C20.7528 5.13265 24.167 6.34337 26.8435 8.76697C29.52 11.1906 31.2581 14.6453 31.7045 18.429L31.8341 19.5351L35.3409 25.6033L31.8182 27.2649V37.8949H22.7318L22.7273 45.402H11.3636V41.163C11.3636 37.0616 10.0204 33.1755 7.53409 29.7622C5.59385 27.1018 4.53918 23.7903 4.54545 20.3784ZM45.8045 40.6525L42.0204 37.8749C44.2649 34.178 45.4602 29.8298 45.4545 25.3831C45.4613 20.9357 44.2668 16.5866 42.0227 12.8888L45.8045 10.1112C48.5479 14.6309 50.0084 19.9469 50 25.3831C50 31.0334 48.4545 36.2834 45.8045 40.6525Z" fill="#E30613"/>
</svg>
