<svg width="50" height="51" viewBox="0 0 50 51" fill="none" xmlns="http://www.w3.org/2000/svg">
<path d="M27.5 45.1567C30.3234 44.5804 32.861 43.0463 34.6833 40.814C36.5055 38.5817 37.5006 35.7884 37.5 32.9067V25.4067C37.5 23.6542 37.14 21.9617 36.4625 20.4067H13.5375C12.8513 21.9843 12.4981 23.6864 12.5 25.4067V32.9067C12.4994 35.7884 13.4945 38.5817 15.3167 40.814C17.139 43.0463 19.6766 44.5804 22.5 45.1567V30.4067H27.5V45.1567ZM8.84 39.6317C7.95422 37.5004 7.49881 35.2148 7.5 32.9067H0L0 27.9067H7.5V25.4067C7.5 23.7992 7.7175 22.2442 8.1225 20.7667L2.59 17.5717L5.09 13.2417L10.14 16.1567C10.2994 15.9025 10.4653 15.6524 10.6375 15.4067H39.3625C39.5342 15.6534 39.7 15.9034 39.86 16.1567L44.91 13.2417L47.41 17.5717L41.8775 20.7667C42.2825 22.2417 42.5 23.7992 42.5 25.4067V27.9067H50V32.9067H42.5C42.5012 35.2148 42.0458 37.5004 41.16 39.6317L47.41 43.2417L44.91 47.5717L38.595 43.9267C36.9554 45.9521 34.8837 47.5852 32.5314 48.7064C30.1791 49.8276 27.6058 50.4086 25 50.4067C22.3942 50.4086 19.8209 49.8276 17.4686 48.7064C15.1163 47.5852 13.0446 45.9521 11.405 43.9267L5.09 47.5717L2.59 43.2417L8.84 39.6317ZM15 10.4067C15 7.75457 16.0536 5.21103 17.9289 3.33567C19.8043 1.46031 22.3478 0.406738 25 0.406738C27.6522 0.406738 30.1957 1.46031 32.0711 3.33567C33.9464 5.21103 35 7.75457 35 10.4067H15Z" fill="#E30613"/>
</svg>
