<svg width="50" height="50" viewBox="0 0 50 50" fill="none" xmlns="http://www.w3.org/2000/svg">
<path d="M27.5 44.75C30.3234 44.1737 32.861 42.6395 34.6833 40.4073C36.5055 38.175 37.5006 35.3816 37.5 32.5V25C37.5 23.2475 37.14 21.555 36.4625 20H13.5375C12.8513 21.5775 12.4981 23.2797 12.5 25V32.5C12.4994 35.3816 13.4945 38.175 15.3167 40.4073C17.139 42.6395 19.6766 44.1737 22.5 44.75V30H27.5V44.75ZM8.84 39.225C7.95422 37.0936 7.49881 34.8081 7.5 32.5H0L0 27.5H7.5V25C7.5 23.3925 7.7175 21.8375 8.1225 20.36L2.59 17.165L5.09 12.835L10.14 15.75C10.2994 15.4958 10.4653 15.2457 10.6375 15H39.3625C39.5342 15.2467 39.7 15.4967 39.86 15.75L44.91 12.835L47.41 17.165L41.8775 20.36C42.2825 21.835 42.5 23.3925 42.5 25V27.5H50V32.5H42.5C42.5012 34.8081 42.0458 37.0936 41.16 39.225L47.41 42.835L44.91 47.165L38.595 43.52C36.9554 45.5454 34.8837 47.1785 32.5314 48.2997C30.1791 49.4209 27.6058 50.0019 25 50C22.3942 50.0019 19.8209 49.4209 17.4686 48.2997C15.1163 47.1785 13.0446 45.5454 11.405 43.52L5.09 47.165L2.59 42.835L8.84 39.225ZM15 10C15 7.34783 16.0536 4.8043 17.9289 2.92893C19.8043 1.05357 22.3478 0 25 0C27.6522 0 30.1957 1.05357 32.0711 2.92893C33.9464 4.8043 35 7.34783 35 10H15Z" fill="white"/>
</svg>
